<svg width="26" height="24" viewBox="0 0 26 24" fill="none" xmlns="http://www.w3.org/2000/svg">
<path d="M10.6559 3.5625C10.3372 3.65625 9.83094 3.99375 9.53094 4.3125C9.17469 4.6875 8.79969 4.875 8.46219 4.875C8.04969 4.875 7.61844 5.175 6.60594 6.16875C5.49969 7.2375 5.25594 7.59375 5.18094 8.2125C5.08719 8.85 5.01219 8.98125 4.54344 9.075C3.83094 9.20625 3.75594 9.4125 3.04344 13.1625C2.55594 15.75 2.40594 16.3125 2.10594 16.4063C1.11219 16.725 0.624691 18.6938 1.29969 19.6688C1.97469 20.6063 2.10594 20.625 12.9997 20.625C23.8934 20.625 24.0247 20.6063 24.6997 19.6688C25.3747 18.6938 24.8872 16.725 23.8934 16.4063C23.5934 16.3125 23.4434 15.75 22.9559 13.1625C22.2434 9.4125 22.1684 9.20625 21.4559 9.075C20.9872 8.98125 20.9122 8.85 20.8184 8.2125C20.7434 7.59375 20.4997 7.2375 19.3747 6.15C18.1184 4.9125 18.0059 4.85625 17.2559 4.89375C16.8059 4.9125 16.2247 4.8 15.8684 4.63125C15.5309 4.4625 14.9309 4.3125 14.4997 4.3125C14.0309 4.3125 13.5434 4.1625 13.2247 3.9375C12.6247 3.50625 11.4247 3.31875 10.6559 3.5625ZM12.5309 5.55C12.9434 6 13.0747 6.0375 13.8434 5.925C14.6309 5.79375 14.7622 5.83125 15.3622 6.35625C16.0934 7.0125 16.2997 7.05 16.8247 6.65625C17.2559 6.31875 17.8747 6.6 17.8747 7.10625C17.8747 7.51875 18.1934 7.8 18.7184 7.9125C18.9809 7.95 19.0934 8.11875 19.0934 8.4375V8.90625H12.9997H6.90594V8.4375C6.90594 8.11875 7.01844 7.95 7.28094 7.9125C7.80594 7.8 8.12469 7.51875 8.12469 7.10625C8.12469 6.65625 8.40594 6.50625 9.32469 6.4875C9.92469 6.46875 10.1309 6.375 10.3184 6C10.8247 4.96875 11.7997 4.7625 12.5309 5.55ZM21.2122 12.7875C21.4372 13.95 21.6622 15.1875 21.7372 15.5063L21.8684 16.125H12.9997H4.14969L4.26219 15.5063C4.33719 15.1875 4.56219 13.95 4.78719 12.7875L5.18094 10.6875H12.9997H20.8184L21.2122 12.7875ZM23.3872 18.1125C23.7059 18.9375 23.6122 18.9375 12.9997 18.9375C2.38719 18.9375 2.29344 18.9375 2.61219 18.1125C2.72469 17.85 3.68094 17.8125 12.9997 17.8125C22.3184 17.8125 23.2747 17.85 23.3872 18.1125Z" fill="#F3803D"/>
</svg>
