<svg width="24" height="24" viewBox="0 0 24 24" fill="none" xmlns="http://www.w3.org/2000/svg">
<path d="M3.71211 1.8C2.79336 2.45625 2.34336 3.4125 2.36211 4.6875C2.36211 5.56875 2.58711 6.20625 3.80586 8.925L5.24961 12.15L4.55586 13.7437C3.88086 15.3187 3.86211 15.3375 3.11211 15.4687C2.00586 15.6375 0.899609 16.35 0.412109 17.2125C-0.150391 18.2437 -0.150391 19.8187 0.412109 20.85C1.53711 22.8375 4.57461 23.1937 6.13086 21.525C6.63711 20.9812 7.12461 19.8562 7.12461 19.2375C7.12461 18.7125 7.48086 17.8125 7.68711 17.8125C7.85586 17.8125 8.43711 19.3125 8.43711 19.7625C8.43711 20.4375 9.28086 21.6 10.1246 22.0875C11.0996 22.6687 12.6746 22.7437 13.5934 22.275C15.2434 21.4125 15.9934 19.3687 15.2809 17.6625C14.7184 16.35 13.8371 15.6937 12.3559 15.4687L11.4746 15.3375L10.7809 13.7625L10.0684 12.1875L11.5496 8.85C12.7871 6.0375 13.0121 5.38125 12.9934 4.575C12.9559 3.43125 12.6184 2.6625 11.8121 2.00625C11.0621 1.36875 10.5184 1.21875 10.2184 1.51875C10.0684 1.66875 9.48711 2.83125 8.90586 4.125C8.32461 5.41875 7.78086 6.525 7.70586 6.6C7.63086 6.675 7.08711 5.625 6.48711 4.25625C5.43711 1.9125 5.06211 1.3125 4.59336 1.3125C4.49961 1.3125 4.08711 1.5375 3.71211 1.8ZM5.58711 6.2625L6.78711 8.94375L6.46836 9.5625L6.14961 10.1812L5.04336 7.6875C4.44336 6.31875 3.93711 4.96875 3.93711 4.6875C3.93711 4.0875 4.10586 3.5625 4.29336 3.5625C4.34961 3.5625 4.94961 4.78125 5.58711 6.2625ZM11.4371 4.63125C11.4371 4.85625 10.2746 7.66875 8.86836 10.875L6.28086 16.6875L5.84961 16.2562L5.41836 15.825L8.19336 9.675C10.5934 4.33125 10.9871 3.58125 11.1934 3.8625C11.3246 4.05 11.4371 4.3875 11.4371 4.63125ZM9.63711 15.2062C9.93711 15.9562 9.93711 15.9937 9.58086 16.3312C9.09336 16.7812 9.09336 16.7812 8.81211 16.125C8.62461 15.675 8.62461 15.45 8.81211 15C8.94336 14.6812 9.11211 14.4375 9.18711 14.4375C9.26211 14.4375 9.46836 14.7937 9.63711 15.2062ZM4.49961 17.3812C5.23086 17.8875 5.41836 18.225 5.41836 19.0312C5.41836 19.8375 5.23086 20.175 4.49961 20.6812C3.52461 21.3562 2.19336 20.8875 1.68711 19.7062C1.38711 18.975 1.57461 18.2812 2.24961 17.6062C2.86836 16.9687 3.78711 16.875 4.49961 17.3812ZM12.9371 17.3812C13.6684 17.8875 13.8559 18.225 13.8559 19.0312C13.8559 19.8375 13.6684 20.175 12.9371 20.6812C11.9621 21.3562 10.6309 20.8875 10.1246 19.7062C9.82461 18.975 10.0121 18.2812 10.6871 17.6062C11.3059 16.9687 12.2246 16.875 12.9371 17.3812Z" fill="#F3803D"/>
<path d="M17.2125 1.51875C16.7625 1.7625 16.7812 2.56875 17.2313 2.8125C17.4375 2.90625 18.075 3 18.6375 3C19.6875 3 19.6875 3 19.6875 3.5625C19.6875 4.125 19.6875 4.125 18.6375 4.125C17.3813 4.125 16.875 4.36875 16.875 4.96875C16.875 5.56875 17.3813 5.8125 18.6375 5.8125C19.6875 5.8125 19.6875 5.8125 19.6875 6.375C19.6875 6.9375 19.6875 6.9375 18.6375 6.9375C17.3813 6.9375 16.875 7.18125 16.875 7.78125C16.875 8.38125 17.3813 8.625 18.6375 8.625C19.6875 8.625 19.6875 8.625 19.6875 9.1875C19.6875 9.75 19.6875 9.75 18.6375 9.75C17.3813 9.75 16.875 9.99375 16.875 10.5937C16.875 11.1937 17.3813 11.4375 18.6375 11.4375C19.6875 11.4375 19.6875 11.4375 19.6875 12C19.6875 12.5625 19.6875 12.5625 18.6375 12.5625C17.3813 12.5625 16.875 12.8062 16.875 13.4062C16.875 14.0062 17.3813 14.25 18.6375 14.25C19.6875 14.25 19.6875 14.25 19.6875 14.8125C19.6875 15.375 19.6875 15.375 18.6375 15.375C17.3813 15.375 16.875 15.6187 16.875 16.2187C16.875 16.8187 17.3813 17.0625 18.6375 17.0625C19.6875 17.0625 19.6875 17.0625 19.6875 17.625C19.6875 18.1875 19.6875 18.1875 18.6375 18.1875C17.3813 18.1875 16.875 18.4312 16.875 19.0312C16.875 19.6312 17.3813 19.875 18.6375 19.875C19.6875 19.875 19.6875 19.875 19.6875 20.4375C19.6875 21 19.6875 21 18.6375 21C17.3813 21 16.875 21.2437 16.875 21.8437C16.875 22.5375 17.4 22.6875 19.725 22.6875C22.2563 22.6875 23.1 22.4812 23.625 21.7687C23.9813 21.2437 24 20.9812 24 12C24 3.01875 23.9813 2.75625 23.625 2.23125C23.4 1.93125 22.95 1.6125 22.5375 1.5C21.6375 1.25625 17.625 1.25625 17.2125 1.51875ZM22.3875 3.3C22.5375 3.675 22.5375 20.325 22.3875 20.7C22.3125 20.8875 22.05 21 21.7313 21H21.1875V12V3H21.7313C22.05 3 22.3125 3.1125 22.3875 3.3Z" fill="#F3803D"/>
</svg>
