<svg width="24" height="24" viewBox="0 0 24 24" fill="none" xmlns="http://www.w3.org/2000/svg">
<path d="M1.2 3.2624C0.0375 3.76865 0 3.95615 0 8.53115C0 13.0499 0.0375 13.2186 1.125 13.7811C1.93125 14.1936 22.0688 14.1936 22.875 13.7811C23.9625 13.2186 24 13.0499 24 8.53115C24 3.9374 23.9625 3.76865 22.7625 3.2624C21.8625 2.8874 2.0625 2.8874 1.2 3.2624ZM22.1438 4.6874C22.4813 4.8749 22.5 5.11865 22.5 8.53115C22.5 12.0186 22.4813 12.1874 22.1063 12.3749C21.9 12.4874 21.5438 12.5624 21.3375 12.5249C20.9813 12.4686 20.8688 12.2249 20.5875 10.8936C20.4 10.0124 20.1375 9.1874 20.025 9.05615C19.725 8.6999 4.275 8.6999 3.975 9.05615C3.8625 9.1874 3.6 10.0124 3.4125 10.8936C3.13125 12.2249 3.01875 12.4686 2.6625 12.5249C2.45625 12.5624 2.1 12.4874 1.89375 12.3749C1.51875 12.1874 1.5 12.0186 1.5 8.53115C1.5 5.26865 1.5375 4.8749 1.8375 4.70615C2.2875 4.44365 21.6375 4.4249 22.1438 4.6874ZM19.0125 11.0061C19.0688 11.3999 19.1813 11.9061 19.2375 12.1311L19.35 12.5624H12H4.65L4.7625 12.1311C4.81875 11.9061 4.93125 11.3999 4.9875 11.0061L5.11875 10.3124H12H18.8813L19.0125 11.0061Z" fill="#F3803D"/>
<path d="M14.1938 6.6749C14.1188 6.7499 14.0625 7.0499 14.0625 7.33115C14.0625 7.74365 14.175 7.89365 14.5125 7.9874C15.7313 8.2874 16.8375 7.70615 16.3875 6.9749C16.1813 6.6374 14.475 6.4124 14.1938 6.6749Z" fill="#F3803D"/>
<path d="M17.3814 6.6749C17.1752 6.88115 17.2314 7.59365 17.4752 7.8374C17.7939 8.15615 19.2189 8.11865 19.5002 7.7999C19.6127 7.6499 19.6877 7.33115 19.6502 7.0874C19.5939 6.7124 19.4814 6.65615 18.5627 6.5999C17.9814 6.5624 17.4564 6.5999 17.3814 6.6749Z" fill="#F3803D"/>
<path d="M7.66896 15.6936C7.38771 16.3499 7.31271 16.7999 7.40646 17.3436C7.51896 18.1499 7.53771 18.7686 7.46271 19.9499C7.42521 20.4749 7.50021 20.7374 7.74396 20.8874C8.23146 21.2061 8.66271 20.8311 9.05646 19.6874C9.35646 18.7874 9.37521 18.5999 9.13146 17.9061C8.92521 17.2311 8.92521 17.0061 9.13146 16.3874C9.46896 15.4499 9.22521 14.8124 8.53146 14.8124C8.13771 14.8124 7.98771 14.9811 7.66896 15.6936Z" fill="#F3803D"/>
<path d="M11.6813 15.0374C11.2875 15.5249 11.025 16.7249 11.1375 17.4936C11.2688 18.3186 11.2688 18.5436 11.1938 19.8561C11.1563 20.7749 11.5688 21.2436 12.1125 20.9061C12.5813 20.6061 12.9938 19.1811 12.8625 18.2999C12.7313 17.4936 12.7313 17.3436 12.8063 15.8436C12.8438 14.9624 12.8063 14.9061 12.3563 14.8499C12.0938 14.8124 11.7938 14.9061 11.6813 15.0374Z" fill="#F3803D"/>
<path d="M15.3 15.2249C14.775 16.0686 14.5875 17.1561 14.8687 17.9624C15.0187 18.3749 15.075 18.8249 15 18.9561C14.4 20.0436 14.7562 21.1499 15.6 20.9436C16.2562 20.7749 16.7625 19.4061 16.6125 18.3186C16.4437 17.2874 16.4437 16.7249 16.5937 15.9749C16.8187 14.9061 15.8625 14.3624 15.3 15.2249Z" fill="#F3803D"/>
</svg>
