<svg width="329" height="329" viewBox="0 0 329 329" fill="none" xmlns="http://www.w3.org/2000/svg">
<g opacity="0.2" clip-path="url(#clip0_1914_4880)">
<path d="M99.1301 201.747C111.107 194.832 115.21 179.518 108.295 167.541C101.381 155.565 86.0665 151.461 74.09 158.376C62.1134 165.29 58.01 180.605 64.9246 192.581C71.8393 204.558 87.1536 208.661 99.1301 201.747Z" fill="white"/>
<path d="M118.132 144.514C130.108 137.599 134.212 122.285 127.297 110.308C120.382 98.3318 105.068 94.2283 93.0915 101.143C81.115 108.058 77.0116 123.372 83.9262 135.348C90.8409 147.325 106.155 151.428 118.132 144.514Z" fill="white"/>
<path d="M170.177 114.466C182.153 107.551 186.257 92.2366 179.342 80.2601C172.427 68.2836 157.113 64.1801 145.137 71.0948C133.16 78.0094 129.057 93.3238 135.971 105.3C142.886 117.277 158.2 121.38 170.177 114.466Z" fill="white"/>
<path d="M229.243 126.626C241.219 119.711 245.323 104.397 238.408 92.4206C231.493 80.4441 216.179 76.3407 204.202 83.2553C192.226 90.17 188.122 105.484 195.037 117.461C201.952 129.437 217.266 133.541 229.243 126.626Z" fill="white"/>
<path d="M224.829 162.252C212.175 157.761 201.486 153.87 188.744 149.43C182.05 147.049 174.228 145.32 166.954 146.744C165.799 146.948 164.695 147.238 163.641 147.616C161.272 148.521 158.93 149.873 156.674 151.175C154.419 152.477 152.077 153.829 150.072 155.565C149.218 156.29 148.414 157.101 147.66 157.998C142.79 163.586 140.464 171.175 139.091 178.212C136.653 191.417 134.678 202.619 132.153 215.874C127.35 233.798 120.646 254.438 133.415 270.544C141.039 277.94 152.429 283.045 165.244 279C172.328 276.645 189.584 259.859 211.096 247.439L212.657 246.537C234.169 234.117 257.284 227.48 262.915 222.609C272.826 213.533 274.05 201.03 271.508 190.817C263.98 171.569 242.753 167.054 224.829 162.252Z" fill="white"/>
</g>
<defs>
<clipPath id="clip0_1914_4880">
<rect width="240.386" height="240.386" fill="white" transform="translate(0 120.193) rotate(-30)"/>
</clipPath>
</defs>
</svg>
