<svg width="139" height="173" viewBox="0 0 139 173" fill="none" xmlns="http://www.w3.org/2000/svg">
<path d="M61.5774 173C91.0402 173 114.925 169.932 114.925 166.148C114.925 162.364 91.0402 159.296 61.5774 159.296C32.1146 159.296 8.23022 162.364 8.23022 166.148C8.23022 169.932 32.1146 173 61.5774 173Z" fill="#E4864D"/>
<path d="M114.647 10.7692C103.551 4.68776 91.3176 0.408414 78.6957 0.0260811C65.0801 -0.388113 50.9826 4.12621 41.5112 13.9155C36.4489 19.1487 26.9955 33.4902 34.5232 40.177C39.0059 44.1597 46.8762 39.492 50.8511 36.7619C54.8918 33.986 58.6338 30.6964 63.0886 28.6473C68.8539 25.9929 75.5153 25.6125 81.7267 26.9188C87.938 28.2251 93.7272 31.1444 98.919 34.7945C101.04 36.286 103.143 37.9866 104.266 40.3224C105.799 43.5105 105.236 47.3299 103.987 50.6394C98.3155 65.6699 82.7961 67.1016 70.3853 74.0434C63.5527 77.8647 57.2756 82.9625 53.1114 89.5896C49.5925 95.1912 49.1604 107.372 49.1106 111.012C49.1006 111.675 48.7701 112.291 48.2244 112.667C46.6054 113.78 43.2039 116.11 41.8717 116.948C38.986 118.762 35.9072 121.146 33.1112 123.872C30.0802 122.401 27.0134 121.094 23.8629 120.15C20.7164 119.206 17.4863 118.625 14.1326 118.601L4.83851 110.279C3.54008 109.116 1.51278 110.297 1.8812 112L4.22315 122.819C1.83739 126.931 0.861572 130.161 0.861572 132.855C0.861572 135.844 2.06441 138.174 3.87266 140.318C11.3924 148.61 16.5324 148.469 22.1463 146.643C22.3375 149.506 22.8692 152.398 23.851 155.325C24.8308 158.252 26.2626 161.215 28.2541 164.22C29.3573 165.887 31.2273 166.885 33.2267 166.885H86.8547C89.4516 166.885 91.7756 165.252 92.6359 162.8C98.3673 146.486 97.2501 134.898 92.5742 125.77C88.9437 121.082 84.7836 117.621 80.1315 115.296C76.8556 113.659 70.5606 112.516 67.1233 111.984C65.5142 111.735 65.3728 110.287 65.6716 108.961C66.4482 105.506 68.374 102.386 70.7757 99.7812C75.8021 94.3289 82.5651 90.6191 89.2225 87.5465C94.02 85.3322 98.9289 83.3608 103.892 81.5467C111.121 78.9022 118.626 76.5007 124.702 71.7733C136.864 62.3085 142.148 42.1066 134.721 28.2749C130.934 21.2197 124.175 16.2673 117.252 12.2388C116.392 11.737 115.524 11.2472 114.647 10.7673V10.7692ZM15.8095 128.325C14.6146 131.178 12.3443 132.945 10.7352 132.272C9.12811 131.598 8.79355 128.741 9.98842 125.887C11.1833 123.036 13.4536 121.269 15.0607 121.943C16.6678 122.614 17.0023 125.473 15.8095 128.325ZM26.9895 132.337C25.7966 135.189 23.5244 136.955 21.9173 136.282C20.3101 135.611 19.9756 132.751 21.1705 129.9C22.3633 127.046 24.6356 125.28 26.2427 125.953C27.8498 126.626 28.1844 129.484 26.9895 132.337Z" fill="#24243A"/>
<path d="M15.0966 128.311C14.2223 130.398 12.5615 131.69 11.3865 131.198C10.2096 130.706 9.96461 128.615 10.8389 126.528C11.7131 124.442 13.374 123.149 14.5489 123.641C15.7259 124.135 15.9708 126.226 15.0966 128.311Z" fill="#24243A"/>
<path d="M26.3107 132.361C25.4365 134.448 23.7756 135.74 22.6006 135.248C21.4237 134.757 21.1787 132.666 22.053 130.579C22.9272 128.492 24.5881 127.2 25.7631 127.691C26.94 128.185 27.185 130.276 26.3107 132.361Z" fill="#24243A"/>
</svg>
