<svg width="24" height="24" viewBox="0 0 24 24" fill="none" xmlns="http://www.w3.org/2000/svg">
<path d="M5.08178 1.70625C3.15053 2.08125 1.40678 3.4125 0.563027 5.15625C-0.111973 6.525 -0.186973 8.85 0.375527 10.4062C0.769277 11.4562 1.18178 11.9062 6.26303 17.0062C9.26303 20.025 11.8505 22.5 12.0005 22.5C12.1505 22.5 14.738 20.025 17.738 17.0062C22.763 11.9812 23.2318 11.4375 23.6068 10.4437C24.0755 9.15 24.1318 6.99375 23.7193 5.83125C23.1005 4.06875 21.638 2.60625 19.838 1.93125C19.3693 1.7625 18.4318 1.65 17.6068 1.65C15.8068 1.63125 14.4943 2.19375 13.0318 3.58125L12.0005 4.55625L10.9693 3.58125C9.28178 1.96875 7.12553 1.29375 5.08178 1.70625ZM7.93178 3.4875C8.55053 3.69375 9.28178 4.21875 10.2943 5.175C11.1005 5.94375 11.8693 6.5625 12.0005 6.5625C12.1318 6.5625 12.9005 5.94375 13.7068 5.175C15.8068 3.1875 17.5693 2.7 19.5005 3.58125C21.3943 4.425 22.388 5.9625 22.388 7.96875C22.388 9.5625 22.013 10.3875 20.588 11.8875L19.5943 12.9187L18.0943 12.675C16.763 12.4875 16.6318 12.4312 17.0068 12.225C17.2318 12.0938 17.588 12 17.813 12C18.563 12 19.4818 11.4562 20.0443 10.6687C21.0005 9.35625 20.7568 8.34375 19.4068 8.11875C18.9943 8.0625 18.3943 7.78125 18.0568 7.48125C17.738 7.2 17.288 6.91875 17.0818 6.84375C16.613 6.69375 16.5755 6.45 16.988 6.3C17.1755 6.225 17.2505 6 17.213 5.5875C17.1755 5.1 17.063 4.95 16.7255 4.9125C15.9568 4.8 13.838 6.31875 12.6568 7.8375L12.0193 8.6625L11.663 7.93125C10.7068 6.1125 9.13178 5.38125 7.31303 5.925C6.75053 6.075 5.66303 6.28125 4.89428 6.35625C3.71303 6.4875 3.43178 6.58125 3.05678 7.0125C2.55053 7.59375 2.49428 8.4 2.90678 9.1875C3.30053 9.9375 4.68803 10.9688 5.71928 11.25C6.30053 11.4187 6.73178 11.7 7.03178 12.0938C7.51928 12.7125 7.96928 14.2875 8.11928 15.8437L8.21303 16.7625L5.34428 13.875C3.75053 12.2437 2.28803 10.5938 2.04428 10.125C1.44428 8.98125 1.42553 6.99375 2.00678 5.90625C3.18803 3.675 5.60678 2.7 7.93178 3.4875ZM9.69428 7.9125C9.80678 8.04375 10.2193 8.775 10.5943 9.50625C10.9693 10.2562 11.663 11.3062 12.1318 11.8125C13.3693 13.2 14.4005 13.725 16.463 14.0625L18.188 14.3438L15.0943 17.4375L12.0005 20.5312L10.8755 19.4062L9.75053 18.3V16.8187C9.75053 14.9437 9.28178 12.7125 8.66303 11.5687C8.15678 10.6312 7.20053 9.91875 6.13178 9.675C5.83178 9.6 5.25053 9.225 4.81928 8.8125L4.03178 8.08125L5.21303 8.0625C5.86928 8.0625 6.56303 7.96875 6.76928 7.875C7.05053 7.70625 7.14428 7.74375 7.23803 8.00625C7.72553 9.525 8.13803 9.91875 8.83178 9.54375C9.24428 9.3375 9.24428 9.225 8.88803 7.8C8.77553 7.3125 8.79428 7.29375 9.13178 7.4625C9.33803 7.575 9.60053 7.78125 9.69428 7.9125ZM15.9943 8.11875C16.3318 8.26875 16.8755 8.60625 17.1943 8.8875C17.5318 9.16875 18.038 9.46875 18.3005 9.54375C18.7693 9.65625 18.788 9.69375 18.488 9.99375C18.3005 10.1625 17.9068 10.3125 17.6068 10.3125C16.8943 10.3125 16.1818 10.6875 15.488 11.4187C14.9443 11.9812 14.9068 11.9812 14.4568 11.7C14.1943 11.5312 13.7443 11.1375 13.463 10.8375L12.9568 10.2562L13.3505 9.675C13.9693 8.775 14.8505 7.875 15.1318 7.875C15.2818 7.875 15.6568 7.9875 15.9943 8.11875Z" fill="#F3803D"/>
</svg>
