<svg width="24" height="24" viewBox="0 0 24 24" fill="none" xmlns="http://www.w3.org/2000/svg">
<path d="M1.19971 0.262453C1.03096 0.693703 1.18096 1.16245 1.55596 1.38745C2.02471 1.68745 2.53096 1.31245 2.53096 0.637453C2.53096 0.168703 2.45596 0.0937032 1.91221 0.0374532C1.49971 -4.68493e-05 1.27471 0.0749531 1.19971 0.262453Z" fill="#F3803D"/>
<path d="M21.3187 0.131204C21.2437 0.187454 21.1875 0.487454 21.1875 0.787454C21.1875 1.23745 21.1125 1.31245 20.6437 1.31245C19.9687 1.31245 19.6125 1.72495 19.7625 2.3437C19.8562 2.73745 19.9875 2.81245 20.5312 2.81245C21.15 2.81245 21.1875 2.84995 21.1875 3.4687C21.1875 4.01245 21.2625 4.1437 21.6562 4.23745C22.275 4.38745 22.6875 4.0312 22.6875 3.3562C22.6875 2.9062 22.7625 2.8312 23.3062 2.77495C23.8125 2.7187 23.925 2.6437 23.9625 2.17495C24.0375 1.5937 23.775 1.31245 23.1187 1.31245C22.8187 1.31245 22.6875 1.19995 22.6875 0.956204C22.6875 0.281204 22.4625 -4.57764e-05 21.9562 -4.57764e-05C21.675 -4.57764e-05 21.375 0.0562043 21.3187 0.131204Z" fill="#F3803D"/>
<path d="M5.90598 3.07495C4.96848 3.5062 4.33098 4.34995 3.74973 6.01871C3.13098 7.78121 3.09348 8.02495 3.39348 9.09371C3.59973 9.8062 4.68723 11.1 5.21223 11.2687C5.41848 11.3437 5.41848 11.55 5.15598 12.4687C4.72473 13.9125 4.85598 15.4312 5.53098 16.8187C6.01848 17.7937 6.05598 18.0375 6.07473 20.475L6.09348 23.1L6.61848 23.55C7.33098 24.1687 8.02473 24.1125 9.56223 23.3437C10.631 22.8187 11.081 22.6875 11.9997 22.6875C12.9185 22.6875 13.3685 22.8187 14.4372 23.3437C15.9747 24.1125 16.6685 24.1687 17.381 23.55L17.906 23.1L17.9247 20.475C17.9435 18.0375 17.981 17.7937 18.4685 16.8187C19.1435 15.4312 19.2747 13.9125 18.8435 12.4687C18.581 11.55 18.581 11.3437 18.7872 11.2687C18.9185 11.2312 19.331 10.8937 19.706 10.5187C20.3622 9.8812 20.8122 8.81246 20.8122 7.96871C20.7935 7.23746 19.6872 4.42496 19.1997 3.9187C18.0747 2.73746 16.4247 2.49371 14.981 3.26245C14.3247 3.59995 14.0435 3.65621 13.6872 3.5062C13.0872 3.28121 10.9122 3.28121 10.3122 3.5062C9.95598 3.65621 9.67473 3.59995 9.01848 3.26245C8.08098 2.7562 6.78723 2.68121 5.90598 3.07495ZM8.21223 4.59371C8.24973 4.6312 8.02473 4.98746 7.72473 5.4187C7.42473 5.83121 6.93723 6.9187 6.65598 7.8187C6.35598 8.73746 6.05598 9.5437 5.98098 9.63745C5.90598 9.7312 5.60598 9.56246 5.34348 9.26245C4.74348 8.6062 4.76223 7.83746 5.45598 6.09371C5.81223 5.21246 6.03723 4.89371 6.56223 4.6312C7.12473 4.34995 7.94973 4.33121 8.21223 4.59371ZM17.756 4.78121C18.206 5.08121 18.9372 6.84371 19.0685 7.96871C19.1435 8.58745 19.0872 8.81246 18.656 9.26245C18.3935 9.56246 18.0935 9.7312 18.0185 9.63745C17.9247 9.5437 17.6435 8.73746 17.381 7.8562C17.0997 6.97495 16.631 5.90621 16.3122 5.47495C15.656 4.55621 15.656 4.55621 16.0872 4.4437C16.5185 4.31246 17.2497 4.46246 17.756 4.78121ZM13.331 5.13745C14.1185 5.47495 14.8685 6.14996 15.2435 6.86246C15.3935 7.16245 15.956 8.73746 16.481 10.35C17.5872 13.725 17.681 14.8312 17.006 16.0125C16.781 16.425 16.4622 16.8 16.3122 16.875C13.1997 18.3375 13.106 18.375 11.9997 18.375C10.8935 18.375 10.7997 18.3375 7.68723 16.875C7.12473 16.6125 6.56223 15.3187 6.56223 14.2875C6.56223 13.2 8.13723 8.02495 8.86848 6.6937C9.71223 5.17496 11.7372 4.46246 13.331 5.13745ZM9.74973 20.5312V21.4875L8.71848 21.9937L7.68723 22.5V20.5312V18.5625L8.71848 19.0687L9.74973 19.575V20.5312ZM16.3122 20.5312V22.5L15.281 21.9937L14.2497 21.4875V20.5312V19.575L15.2435 19.0875C15.7685 18.8062 16.2372 18.5812 16.2747 18.5812C16.2935 18.5625 16.3122 19.4437 16.3122 20.5312ZM12.5622 20.5312C12.5622 21.1312 12.5247 21.1875 11.9997 21.1875C11.4747 21.1875 11.4372 21.1312 11.4372 20.5312C11.4372 19.9312 11.4747 19.875 11.9997 19.875C12.5247 19.875 12.5622 19.9312 12.5622 20.5312Z" fill="#F3803D"/>
<path d="M9.15041 8.2687C8.58791 8.6812 8.45666 9.37495 8.86916 9.71245C9.11291 9.9187 11.0442 9.89995 11.4004 9.67495C11.8129 9.41245 11.6442 8.66245 11.0817 8.2687C10.3879 7.7812 9.80666 7.7812 9.15041 8.2687Z" fill="#F3803D"/>
<path d="M12.8999 8.2687C12.3561 8.6812 12.1874 9.4312 12.5999 9.67495C12.9561 9.89995 14.8874 9.9187 15.1499 9.71245C15.5624 9.37495 15.4124 8.6812 14.8311 8.2687C14.1374 7.7812 13.5561 7.7812 12.8999 8.2687Z" fill="#F3803D"/>
<path d="M10.5 10.8937C9.675 11.2312 9.375 11.6437 9.375 12.4312C9.375 13.3312 9.95625 14.3437 10.7063 14.7187C11.175 14.9812 11.25 15.1125 11.25 15.8437C11.25 16.8187 11.7 17.2312 12.375 16.875C12.6563 16.725 12.75 16.4812 12.75 15.8437C12.75 15.1125 12.825 14.9812 13.2938 14.7187C14.3625 14.175 14.9438 12.5625 14.4188 11.5875C14.0063 10.8187 11.7375 10.4062 10.5 10.8937ZM12.9 12.7875C12.75 13.0125 12.4875 13.2937 12.3188 13.3875C11.9438 13.6312 11.5125 13.4062 11.1 12.7875C10.8375 12.375 10.8375 12.375 12 12.375C13.1625 12.375 13.1625 12.375 12.9 12.7875Z" fill="#F3803D"/>
<path d="M21.5621 13.5937C21.4309 13.7625 21.3746 14.0625 21.4496 14.3437C21.5621 14.7562 21.6559 14.8312 22.1809 14.775C22.6871 14.7187 22.7996 14.625 22.8371 14.175C22.9309 13.3687 22.0684 12.975 21.5621 13.5937Z" fill="#F3803D"/>
<path d="M1.65 16.5187C1.44375 16.6312 1.3125 16.9312 1.3125 17.25C1.3125 17.7187 1.2375 17.7937 0.7125 17.85C0.15 17.9062 0.09375 17.9625 0.09375 18.5625C0.09375 19.1625 0.15 19.2187 0.7125 19.275C1.2375 19.3312 1.3125 19.4062 1.3125 19.8937C1.3125 20.3062 1.44375 20.4937 1.78125 20.6625C2.38125 20.925 2.8125 20.5875 2.8125 19.8562C2.8125 19.4062 2.8875 19.3312 3.39375 19.275C4.59375 19.1625 4.59375 17.9625 3.39375 17.85C2.90625 17.7937 2.8125 17.7187 2.8125 17.2687C2.8125 16.4437 2.325 16.125 1.65 16.5187Z" fill="#F3803D"/>
<path d="M21.4312 19.8187C21.3 19.8562 21.1875 20.1937 21.1875 20.55C21.1875 21.15 21.15 21.1875 20.5312 21.1875C19.9875 21.1875 19.8562 21.2625 19.7625 21.6562C19.6125 22.275 19.9687 22.6875 20.6437 22.6875C21.0937 22.6875 21.1687 22.7625 21.225 23.2875C21.2812 23.8125 21.3562 23.925 21.825 23.9625C22.4062 24.0375 22.6875 23.775 22.6875 23.1C22.6875 22.8 22.8 22.6875 23.1187 22.6875C23.775 22.6875 24.0375 22.4062 23.9625 21.825C23.925 21.3562 23.8125 21.2812 23.3062 21.225C22.7812 21.1687 22.6875 21.0937 22.6875 20.6437C22.6875 19.8562 22.1625 19.5187 21.4312 19.8187Z" fill="#F3803D"/>
</svg>
