<svg width="24" height="24" viewBox="0 0 24 24" fill="none" xmlns="http://www.w3.org/2000/svg">
<path d="M4.55625 0.356191C4.2375 0.56244 3.88125 0.88119 3.7875 1.04994C3.6375 1.31244 3.39375 1.36869 2.64375 1.33119C0.95625 1.23744 0 2.17494 0 3.93744C0 4.79994 0.075 4.98744 0.6375 5.54994C0.99375 5.90619 1.3875 6.18744 1.5375 6.18744C1.725 6.18744 1.78125 6.54369 1.78125 7.57494C1.78125 9.20619 2.1 9.80619 3.3 10.4062C4.33125 10.9312 7.63125 10.9499 8.68125 10.4249C9.825 9.86244 10.2188 9.13119 10.2188 7.57494C10.2 6.28119 10.2188 6.22494 10.725 6.03744C12.1125 5.53119 12.4313 3.14994 11.2688 2.00619C10.725 1.46244 10.575 1.40619 9.46875 1.40619C8.45625 1.40619 8.23125 1.34994 8.1375 1.06869C7.8375 0.0936899 5.7 -0.31881 4.55625 0.356191ZM6.6 1.81869C7.03125 2.21244 7.03125 2.66244 6.5625 3.09369C5.71875 3.84369 4.59375 2.71869 5.34375 1.87494C5.75625 1.42494 6.15 1.40619 6.6 1.81869ZM3.0375 3.13119C3.225 3.29994 3.375 3.61869 3.375 3.84369C3.375 4.83744 1.93125 5.00619 1.59375 4.04994C1.44375 3.59994 1.48125 3.46869 1.85625 3.16869C2.4 2.73744 2.5875 2.71869 3.0375 3.13119ZM10.125 3.18744C10.575 3.63744 10.575 3.73119 10.2 4.27494C9.88125 4.72494 9.20625 4.81869 8.85 4.46244C8.53125 4.14369 8.56875 3.44994 8.925 3.11244C9.31875 2.71869 9.675 2.73744 10.125 3.18744ZM7.275 5.43744C8.625 6.26244 9.05625 8.09994 8.0625 8.84994C7.6875 9.13119 7.25625 9.20619 6.075 9.20619C3.75 9.20619 2.9625 8.62494 3.375 7.16244C3.88125 5.34369 5.75625 4.51869 7.275 5.43744Z" fill="#F3803D"/>
<path d="M16.4441 0.374943C15.4504 1.16244 15.3754 2.64369 16.2754 3.61869L16.7629 4.14369L16.3129 4.96869C16.0504 5.43744 15.7691 5.81244 15.6566 5.81244C15.5629 5.81244 15.1316 5.58744 14.7191 5.34369C13.8379 4.79994 13.2004 4.74369 12.9754 5.19369C12.7504 5.62494 12.8816 6.01869 13.3504 6.37494C13.6879 6.65619 13.5941 6.86244 10.6691 11.9062C7.89414 16.6687 7.61289 17.2312 7.61289 18.0562C7.59414 18.8812 7.66914 19.0312 8.30664 19.6124C8.68164 19.9687 9.00039 20.3062 9.00039 20.3624C9.00039 20.4187 8.66289 21.0562 8.23164 21.7874C7.66914 22.7437 7.50039 23.2124 7.57539 23.5499C7.68789 23.9437 7.80039 24.0187 8.30664 23.9624C8.83164 23.9062 9.00039 23.7374 9.73164 22.4812C10.5566 21.0749 10.5566 21.0562 11.0441 21.2999C11.6441 21.6187 12.7129 21.6187 13.2754 21.2999C13.8379 20.9999 13.9316 20.8499 17.1941 15.1499C19.2941 11.5124 20.0441 10.3499 20.2504 10.4249C20.8879 10.6874 21.1129 10.6874 21.4504 10.4437C22.0504 10.0124 21.7129 9.33744 20.6254 8.73744C20.1191 8.45619 19.6879 8.17494 19.6879 8.13744C19.6879 8.08119 19.8941 7.66869 20.1566 7.23744L20.6254 6.44994L21.7129 6.52494C22.7441 6.59994 22.8379 6.56244 23.4004 5.99994C23.9066 5.49369 24.0004 5.26869 24.0004 4.51869C24.0004 3.26244 23.6254 2.86869 20.9254 1.33119C18.9941 0.224943 18.4691 -5.72205e-05 17.7754 -5.72205e-05C17.2129 -5.72205e-05 16.7629 0.131193 16.4441 0.374943ZM20.1754 2.79369C22.4066 4.08744 22.7816 4.49994 22.1254 4.91244C21.9191 5.04369 21.2629 4.76244 19.6129 3.80619C18.3941 3.11244 17.3441 2.41869 17.3066 2.28744C17.2129 2.04369 17.5691 1.49994 17.8129 1.49994C17.8879 1.49994 18.9566 2.08119 20.1754 2.79369ZM18.8066 6.31869C18.2441 7.31244 18.1504 7.36869 17.6441 7.01244L17.2504 6.73119L17.7379 5.81244L18.2254 4.91244L18.7316 5.21244L19.2566 5.49369L18.8066 6.31869ZM16.8754 8.45619C17.8129 8.98119 18.5629 9.44994 18.5629 9.48744C18.5629 9.52494 18.1129 10.2937 17.5879 11.2124L16.5941 12.8999L15.0004 11.9812C14.1191 11.4749 13.3879 10.9874 13.3504 10.8937C13.3129 10.7812 13.3879 10.5374 13.5004 10.3312L13.7066 9.93744L14.4379 10.3124C15.2816 10.7437 15.7691 10.7812 16.0879 10.4624C16.6129 9.93744 16.2004 9.37494 14.6629 8.51244C14.5879 8.47494 15.0379 7.49994 15.1316 7.49994C15.1691 7.49994 15.9566 7.93119 16.8754 8.45619ZM14.1004 13.3312C15.0191 13.8749 15.7316 14.3624 15.7129 14.4187C15.3754 15.1499 12.6566 19.7249 12.4504 19.8937C12.1129 20.1749 9.30039 18.5999 9.22539 18.0749C9.15039 17.4562 9.43164 17.1937 9.97539 17.4562C10.9879 17.9062 11.6629 16.9124 10.8754 16.1249C10.4254 15.6749 10.4254 15.5624 10.7441 15.1124C10.9879 14.7937 11.0254 14.7937 11.6441 15.1687C12.3566 15.6187 12.9379 15.6749 13.2754 15.3374C13.8004 14.8124 13.3879 14.2499 11.8504 13.3874C11.7754 13.3499 12.2254 12.3749 12.3379 12.3749C12.3754 12.3749 13.1816 12.8062 14.1004 13.3312Z" fill="#F3803D"/>
</svg>
