<svg width="24" height="24" viewBox="0 0 24 24" fill="none" xmlns="http://www.w3.org/2000/svg">
<path d="M12.6 4.35C12.4688 4.48125 12.375 4.875 12.375 5.23125C12.375 5.83125 12.6 6.13125 14.85 8.38125L17.3438 10.875H10.2C4.9125 10.875 3.01875 10.9312 2.85 11.1C2.55 11.4 2.55 12.6 2.85 12.9C3.01875 13.0687 4.9125 13.125 10.2 13.125H17.3438L14.85 15.6187C12.6 17.8687 12.375 18.1687 12.375 18.7687C12.375 19.5937 12.6563 19.875 13.5 19.875C14.1 19.875 14.4375 19.5937 17.775 16.2562C21.075 12.9562 21.375 12.6 21.375 12C21.375 11.4 21.075 11.0437 17.7563 7.725C14.4375 4.40625 14.1 4.125 13.4813 4.125C13.125 4.125 12.7313 4.21875 12.6 4.35Z" fill="#E38751"/>
</svg>
