<svg width="32" height="32" viewBox="0 0 32 32" fill="none" xmlns="http://www.w3.org/2000/svg">
<rect width="32" height="32" rx="16" fill="white"/>
<path d="M15.6 10.9C15.6875 10.9875 15.75 11.25 15.75 11.4875C15.75 11.8875 15.6 12.0875 14.1 13.5875L12.4375 15.25H17.2C20.725 15.25 21.9875 15.2875 22.1 15.4C22.3 15.6 22.3 16.4 22.1 16.6C21.9875 16.7125 20.725 16.75 17.2 16.75H12.4375L14.1 18.4125C15.6 19.9125 15.75 20.1125 15.75 20.5125C15.75 21.0625 15.5625 21.25 15 21.25C14.6 21.25 14.375 21.0625 12.15 18.8375C9.95 16.6375 9.75 16.4 9.75 16C9.75 15.6 9.95 15.3625 12.1625 13.15C14.375 10.9375 14.6 10.75 15.0125 10.75C15.25 10.75 15.5125 10.8125 15.6 10.9Z" fill="#303030"/>
</svg>
