<svg width="16" height="16" viewBox="0 0 16 16" fill="none" xmlns="http://www.w3.org/2000/svg">
<path d="M7.4625 0.849999C7.3375 0.974999 7.25 1.275 7.25 1.5125C7.25 1.9375 7.25 1.95 6.375 2.1625C4.3875 2.6875 2.675 4.3875 2.1625 6.3875L1.95 7.25H1.4875C0.9625 7.25 0.625 7.55 0.625 8.025C0.625 8.45 0.9875 8.75 1.5125 8.75C1.9375 8.75 1.95 8.75 2.1625 9.6125C2.675 11.6125 4.3875 13.3125 6.375 13.8375L7.25 14.05V14.5125C7.25 15.0375 7.55 15.375 8.025 15.375C8.45 15.375 8.75 15.0125 8.75 14.4875C8.75 14.0625 8.75 14.05 9.625 13.8375C11.6125 13.3125 13.325 11.6125 13.8375 9.6125L14.05 8.75H14.5125C15.0375 8.75 15.375 8.45 15.375 7.975C15.375 7.55 15.0125 7.25 14.4875 7.25C14.0625 7.25 14.05 7.25 13.8375 6.375C13.3125 4.3875 11.6125 2.675 9.6125 2.1625L8.75 1.95V1.4875C8.75 0.724999 7.9375 0.324999 7.4625 0.849999ZM9.85 3.8125C10.2375 3.9875 10.8375 4.4 11.1625 4.725C13.5125 7.0125 12.825 10.8125 9.8125 12.2125C9.175 12.5 8.9 12.5625 8 12.5625C7.1 12.5625 6.825 12.5 6.1875 12.2125C3.825 11.1125 2.7875 8.45 3.825 6.125C4.375 4.9125 5.6625 3.8375 6.9625 3.5C7.7375 3.3125 9.05 3.45 9.85 3.8125Z" fill="#E38751"/>
<path d="M7.20002 5.37499C5.50002 5.88749 4.73752 7.97499 5.71252 9.47499C6.78752 11.1375 9.21252 11.1375 10.2875 9.47499C11.65 7.36249 9.61252 4.66249 7.20002 5.37499ZM8.61252 6.92499C9.45002 7.36249 9.42502 8.71249 8.56252 9.09999C7.92502 9.38749 7.22502 9.18749 6.92502 8.61249C6.33752 7.47499 7.47502 6.33749 8.61252 6.92499Z" fill="#E38751"/>
</svg>
