<svg width="16" height="16" viewBox="0 0 16 16" fill="none" xmlns="http://www.w3.org/2000/svg">
<g id="Icon">
<path id="Chevron" d="M6.86019 12.9795C6.56505 12.9795 6.31418 12.8522 6.10758 12.5976L3.24105 9.06702C3.15988 8.9711 3.10086 8.87702 3.06396 8.78479C3.03076 8.69256 3.01416 8.59664 3.01416 8.49703C3.01416 8.27568 3.08794 8.09306 3.23551 7.94918C3.38308 7.8053 3.56939 7.73336 3.79443 7.73336C4.04899 7.73336 4.26297 7.84219 4.43636 8.05985L6.83805 11.1035L11.5252 3.67704C11.6211 3.52947 11.7208 3.42617 11.8241 3.36715C11.9274 3.30443 12.0565 3.27307 12.2114 3.27307C12.4365 3.27307 12.6209 3.34317 12.7648 3.48336C12.9087 3.62355 12.9806 3.80248 12.9806 4.02014C12.9806 4.10868 12.9659 4.19722 12.9364 4.28577C12.9068 4.37431 12.8607 4.46654 12.798 4.56246L7.61833 12.5755C7.44124 12.8448 7.18853 12.9795 6.86019 12.9795Z" fill="white"/>
</g>
</svg>
