<svg width="24" height="24" viewBox="0 0 24 24" fill="none" xmlns="http://www.w3.org/2000/svg">
<rect width="24" height="24" rx="2" fill="#F3803D"/>
<path d="M10.29 19.4692C9.84733 19.4692 9.47103 19.2783 9.16113 18.8965L4.86133 13.6006C4.73958 13.4567 4.65104 13.3156 4.5957 13.1772C4.5459 13.0389 4.521 12.895 4.521 12.7456C4.521 12.4136 4.63167 12.1396 4.85303 11.9238C5.07438 11.708 5.35384 11.6001 5.69141 11.6001C6.07324 11.6001 6.39421 11.7633 6.6543 12.0898L10.2568 16.6553L17.2876 5.51562C17.4315 5.29427 17.5809 5.13932 17.7358 5.05078C17.8908 4.95671 18.0845 4.90967 18.3169 4.90967C18.6545 4.90967 18.9312 5.01481 19.147 5.2251C19.3628 5.43538 19.4707 5.70378 19.4707 6.03027C19.4707 6.16309 19.4486 6.2959 19.4043 6.42871C19.36 6.56152 19.2909 6.69987 19.1968 6.84375L11.4272 18.8633C11.1616 19.2673 10.7826 19.4692 10.29 19.4692Z" fill="white"/>
</svg>
