<svg width="24" height="24" viewBox="0 0 24 24" fill="none" xmlns="http://www.w3.org/2000/svg">
<mask id="path-1-outside-1_1909_4852" maskUnits="userSpaceOnUse" x="0" y="1.67566" width="24" height="19" fill="black">
<rect fill="white" y="1.67566" width="24" height="19"/>
<path d="M3.8063 2.79842C3.73701 2.85039 3.68504 4.49606 3.68504 6.43622C3.68504 9.20787 3.63307 10.1606 3.40787 10.8189L3.13071 11.6677L1 11.7717V12.9842L2.99213 13.0882V14.4394L1 14.5433V15.7559L3.26929 15.8598L3.51181 16.5008C3.87559 17.5055 5.65984 19.1858 6.85512 19.6189C7.77323 19.9654 8.17165 20 12 20C15.8283 20 16.2268 19.9654 17.1449 19.6189C18.3402 19.1858 20.1244 17.5055 20.4882 16.5008L20.7307 15.8598L23 15.7559V14.5433L21.0079 14.4394V13.0882L23 12.9842V11.7717L21.926 11.7197C20.852 11.6677 20.852 11.6677 20.6268 11.0268C20.5055 10.6457 20.3843 8.89606 20.315 6.5748L20.2283 2.76378L19.3449 2.71181C18.115 2.64252 16.7811 3.17952 15.6031 4.23622C14.7024 5.05039 14.6157 5.08504 14.0614 4.92913C13.2992 4.70393 10.7008 4.70393 9.93858 4.92913C9.38425 5.08504 9.29764 5.05039 8.39685 4.23622C7.85984 3.75118 7.01102 3.21417 6.50866 3.02362C5.60787 2.69448 4.0315 2.5559 3.8063 2.79842ZM6.24882 4.56535C6.59528 4.73858 7.08031 5.08504 7.28819 5.32756L7.70394 5.76063L7.34016 5.9685C7.13228 6.07244 6.54331 6.50551 6.02362 6.93858L5.07087 7.70078V5.9685C5.07087 4.02834 5.10551 3.97637 6.24882 4.56535ZM18.9291 5.9685V7.70078L17.9764 6.93858C17.4567 6.50551 16.8677 6.07244 16.6598 5.9685L16.2961 5.76063L16.7118 5.32756C17.1795 4.82519 18.1843 4.25354 18.6346 4.23622C18.8945 4.23622 18.9291 4.42677 18.9291 5.9685ZM13.611 6.40157C14.252 6.54015 15.1701 6.85197 15.6378 7.11181C17.0929 7.90866 18.7213 9.83149 19.1717 11.2866C19.2756 11.6157 19.2236 11.685 18.9638 11.685C18.4787 11.685 18.1843 12.1181 18.3055 12.6378C18.3921 13.0016 18.5134 13.0709 19.0157 13.0709C19.6047 13.0709 19.622 13.0882 19.622 13.7638C19.622 14.4047 19.5874 14.4567 19.1197 14.4567C18.8425 14.4567 18.5307 14.578 18.4094 14.7165C18.0976 15.0803 18.3402 15.8079 18.7732 15.8772C19.137 15.9291 19.1197 15.9638 18.5654 16.6913C18.2362 17.1071 17.5433 17.6961 17.0236 17.9905L16.0709 18.5276H8.08504L7.06299 18.0079C6.40472 17.6787 5.81575 17.1937 5.45197 16.7087C4.88032 15.9638 4.86299 15.9291 5.22677 15.8772C5.65984 15.8079 5.90236 15.0803 5.59055 14.7165C5.46929 14.578 5.15748 14.4567 4.88031 14.4567C4.4126 14.4567 4.37795 14.4047 4.37795 13.7638C4.37795 13.0882 4.39528 13.0709 4.98425 13.0709C5.48661 13.0709 5.60787 13.0016 5.69449 12.6378C5.81575 12.1181 5.52126 11.685 5.03622 11.685C4.6378 11.685 4.70709 11.3386 5.38268 10.074C6.33543 8.28976 8.27559 6.85197 10.3197 6.40157C11.7228 6.08976 12.1906 6.08976 13.611 6.40157Z"/>
<path d="M8.31016 9.53704C7.91174 9.76224 7.82512 9.90082 7.87709 10.3512L7.92906 10.9055L9.05504 10.9229C10.3023 10.9575 10.6141 10.8016 10.6141 10.1953C10.6141 9.91815 10.4409 9.71027 10.0944 9.51972C9.47079 9.19059 8.93378 9.19059 8.31016 9.53704Z"/>
<path d="M13.8709 9.53704C13.3512 9.8142 13.2126 10.4725 13.611 10.7843C13.715 10.8709 14.3213 10.9402 14.9449 10.9229L16.0709 10.9055L16.1228 10.3512C16.1748 9.88349 16.0882 9.76223 15.6551 9.53704C15.0142 9.19058 14.4772 9.19058 13.8709 9.53704Z"/>
<path d="M10.7354 11.7891C10.6661 11.8583 10.6142 12.1528 10.6142 12.43C10.6142 12.7765 10.7181 12.9497 10.9606 13.019C11.3764 13.1229 11.4283 13.7985 11.0299 14.1796C10.5968 14.63 10.285 14.4914 9.90394 13.6772C9.71338 13.2788 9.54016 13.1576 9.14173 13.1576C8.65669 13.1576 8.62205 13.2095 8.57008 13.9024C8.51811 14.5607 8.5874 14.7166 9.12441 15.2536C9.73071 15.8599 9.78267 15.8772 10.7354 15.7733C11.2898 15.7213 11.8614 15.6694 12 15.6694C12.1386 15.6694 12.7102 15.7213 13.2646 15.7733C14.2173 15.8772 14.2693 15.8599 14.8756 15.2536C15.4126 14.7166 15.4819 14.5607 15.4299 13.9024C15.378 13.2095 15.3433 13.1576 14.8583 13.1576C14.4598 13.1576 14.2866 13.2788 14.0961 13.6772C13.715 14.4914 13.4031 14.63 12.9701 14.1796C12.5717 13.7812 12.6236 13.1229 13.0567 13.019C13.3339 12.9497 13.4031 12.8111 13.3512 12.3434L13.2992 11.7717L12.0866 11.7198C11.411 11.7024 10.8047 11.7198 10.7354 11.7891Z"/>
</mask>
<path d="M3.8063 2.79842C3.73701 2.85039 3.68504 4.49606 3.68504 6.43622C3.68504 9.20787 3.63307 10.1606 3.40787 10.8189L3.13071 11.6677L1 11.7717V12.9842L2.99213 13.0882V14.4394L1 14.5433V15.7559L3.26929 15.8598L3.51181 16.5008C3.87559 17.5055 5.65984 19.1858 6.85512 19.6189C7.77323 19.9654 8.17165 20 12 20C15.8283 20 16.2268 19.9654 17.1449 19.6189C18.3402 19.1858 20.1244 17.5055 20.4882 16.5008L20.7307 15.8598L23 15.7559V14.5433L21.0079 14.4394V13.0882L23 12.9842V11.7717L21.926 11.7197C20.852 11.6677 20.852 11.6677 20.6268 11.0268C20.5055 10.6457 20.3843 8.89606 20.315 6.5748L20.2283 2.76378L19.3449 2.71181C18.115 2.64252 16.7811 3.17952 15.6031 4.23622C14.7024 5.05039 14.6157 5.08504 14.0614 4.92913C13.2992 4.70393 10.7008 4.70393 9.93858 4.92913C9.38425 5.08504 9.29764 5.05039 8.39685 4.23622C7.85984 3.75118 7.01102 3.21417 6.50866 3.02362C5.60787 2.69448 4.0315 2.5559 3.8063 2.79842ZM6.24882 4.56535C6.59528 4.73858 7.08031 5.08504 7.28819 5.32756L7.70394 5.76063L7.34016 5.9685C7.13228 6.07244 6.54331 6.50551 6.02362 6.93858L5.07087 7.70078V5.9685C5.07087 4.02834 5.10551 3.97637 6.24882 4.56535ZM18.9291 5.9685V7.70078L17.9764 6.93858C17.4567 6.50551 16.8677 6.07244 16.6598 5.9685L16.2961 5.76063L16.7118 5.32756C17.1795 4.82519 18.1843 4.25354 18.6346 4.23622C18.8945 4.23622 18.9291 4.42677 18.9291 5.9685ZM13.611 6.40157C14.252 6.54015 15.1701 6.85197 15.6378 7.11181C17.0929 7.90866 18.7213 9.83149 19.1717 11.2866C19.2756 11.6157 19.2236 11.685 18.9638 11.685C18.4787 11.685 18.1843 12.1181 18.3055 12.6378C18.3921 13.0016 18.5134 13.0709 19.0157 13.0709C19.6047 13.0709 19.622 13.0882 19.622 13.7638C19.622 14.4047 19.5874 14.4567 19.1197 14.4567C18.8425 14.4567 18.5307 14.578 18.4094 14.7165C18.0976 15.0803 18.3402 15.8079 18.7732 15.8772C19.137 15.9291 19.1197 15.9638 18.5654 16.6913C18.2362 17.1071 17.5433 17.6961 17.0236 17.9905L16.0709 18.5276H8.08504L7.06299 18.0079C6.40472 17.6787 5.81575 17.1937 5.45197 16.7087C4.88032 15.9638 4.86299 15.9291 5.22677 15.8772C5.65984 15.8079 5.90236 15.0803 5.59055 14.7165C5.46929 14.578 5.15748 14.4567 4.88031 14.4567C4.4126 14.4567 4.37795 14.4047 4.37795 13.7638C4.37795 13.0882 4.39528 13.0709 4.98425 13.0709C5.48661 13.0709 5.60787 13.0016 5.69449 12.6378C5.81575 12.1181 5.52126 11.685 5.03622 11.685C4.6378 11.685 4.70709 11.3386 5.38268 10.074C6.33543 8.28976 8.27559 6.85197 10.3197 6.40157C11.7228 6.08976 12.1906 6.08976 13.611 6.40157Z" fill="black"/>
<path d="M8.31016 9.53704C7.91174 9.76224 7.82512 9.90082 7.87709 10.3512L7.92906 10.9055L9.05504 10.9229C10.3023 10.9575 10.6141 10.8016 10.6141 10.1953C10.6141 9.91815 10.4409 9.71027 10.0944 9.51972C9.47079 9.19059 8.93378 9.19059 8.31016 9.53704Z" fill="black"/>
<path d="M13.8709 9.53704C13.3512 9.8142 13.2126 10.4725 13.611 10.7843C13.715 10.8709 14.3213 10.9402 14.9449 10.9229L16.0709 10.9055L16.1228 10.3512C16.1748 9.88349 16.0882 9.76223 15.6551 9.53704C15.0142 9.19058 14.4772 9.19058 13.8709 9.53704Z" fill="black"/>
<path d="M10.7354 11.7891C10.6661 11.8583 10.6142 12.1528 10.6142 12.43C10.6142 12.7765 10.7181 12.9497 10.9606 13.019C11.3764 13.1229 11.4283 13.7985 11.0299 14.1796C10.5968 14.63 10.285 14.4914 9.90394 13.6772C9.71338 13.2788 9.54016 13.1576 9.14173 13.1576C8.65669 13.1576 8.62205 13.2095 8.57008 13.9024C8.51811 14.5607 8.5874 14.7166 9.12441 15.2536C9.73071 15.8599 9.78267 15.8772 10.7354 15.7733C11.2898 15.7213 11.8614 15.6694 12 15.6694C12.1386 15.6694 12.7102 15.7213 13.2646 15.7733C14.2173 15.8772 14.2693 15.8599 14.8756 15.2536C15.4126 14.7166 15.4819 14.5607 15.4299 13.9024C15.378 13.2095 15.3433 13.1576 14.8583 13.1576C14.4598 13.1576 14.2866 13.2788 14.0961 13.6772C13.715 14.4914 13.4031 14.63 12.9701 14.1796C12.5717 13.7812 12.6236 13.1229 13.0567 13.019C13.3339 12.9497 13.4031 12.8111 13.3512 12.3434L13.2992 11.7717L12.0866 11.7198C11.411 11.7024 10.8047 11.7198 10.7354 11.7891Z" fill="black"/>
<path d="M3.8063 2.79842C3.73701 2.85039 3.68504 4.49606 3.68504 6.43622C3.68504 9.20787 3.63307 10.1606 3.40787 10.8189L3.13071 11.6677L1 11.7717V12.9842L2.99213 13.0882V14.4394L1 14.5433V15.7559L3.26929 15.8598L3.51181 16.5008C3.87559 17.5055 5.65984 19.1858 6.85512 19.6189C7.77323 19.9654 8.17165 20 12 20C15.8283 20 16.2268 19.9654 17.1449 19.6189C18.3402 19.1858 20.1244 17.5055 20.4882 16.5008L20.7307 15.8598L23 15.7559V14.5433L21.0079 14.4394V13.0882L23 12.9842V11.7717L21.926 11.7197C20.852 11.6677 20.852 11.6677 20.6268 11.0268C20.5055 10.6457 20.3843 8.89606 20.315 6.5748L20.2283 2.76378L19.3449 2.71181C18.115 2.64252 16.7811 3.17952 15.6031 4.23622C14.7024 5.05039 14.6157 5.08504 14.0614 4.92913C13.2992 4.70393 10.7008 4.70393 9.93858 4.92913C9.38425 5.08504 9.29764 5.05039 8.39685 4.23622C7.85984 3.75118 7.01102 3.21417 6.50866 3.02362C5.60787 2.69448 4.0315 2.5559 3.8063 2.79842ZM6.24882 4.56535C6.59528 4.73858 7.08031 5.08504 7.28819 5.32756L7.70394 5.76063L7.34016 5.9685C7.13228 6.07244 6.54331 6.50551 6.02362 6.93858L5.07087 7.70078V5.9685C5.07087 4.02834 5.10551 3.97637 6.24882 4.56535ZM18.9291 5.9685V7.70078L17.9764 6.93858C17.4567 6.50551 16.8677 6.07244 16.6598 5.9685L16.2961 5.76063L16.7118 5.32756C17.1795 4.82519 18.1843 4.25354 18.6346 4.23622C18.8945 4.23622 18.9291 4.42677 18.9291 5.9685ZM13.611 6.40157C14.252 6.54015 15.1701 6.85197 15.6378 7.11181C17.0929 7.90866 18.7213 9.83149 19.1717 11.2866C19.2756 11.6157 19.2236 11.685 18.9638 11.685C18.4787 11.685 18.1843 12.1181 18.3055 12.6378C18.3921 13.0016 18.5134 13.0709 19.0157 13.0709C19.6047 13.0709 19.622 13.0882 19.622 13.7638C19.622 14.4047 19.5874 14.4567 19.1197 14.4567C18.8425 14.4567 18.5307 14.578 18.4094 14.7165C18.0976 15.0803 18.3402 15.8079 18.7732 15.8772C19.137 15.9291 19.1197 15.9638 18.5654 16.6913C18.2362 17.1071 17.5433 17.6961 17.0236 17.9905L16.0709 18.5276H8.08504L7.06299 18.0079C6.40472 17.6787 5.81575 17.1937 5.45197 16.7087C4.88032 15.9638 4.86299 15.9291 5.22677 15.8772C5.65984 15.8079 5.90236 15.0803 5.59055 14.7165C5.46929 14.578 5.15748 14.4567 4.88031 14.4567C4.4126 14.4567 4.37795 14.4047 4.37795 13.7638C4.37795 13.0882 4.39528 13.0709 4.98425 13.0709C5.48661 13.0709 5.60787 13.0016 5.69449 12.6378C5.81575 12.1181 5.52126 11.685 5.03622 11.685C4.6378 11.685 4.70709 11.3386 5.38268 10.074C6.33543 8.28976 8.27559 6.85197 10.3197 6.40157C11.7228 6.08976 12.1906 6.08976 13.611 6.40157Z" stroke="black" stroke-width="0.2" mask="url(#path-1-outside-1_1909_4852)"/>
<path d="M8.31016 9.53704C7.91174 9.76224 7.82512 9.90082 7.87709 10.3512L7.92906 10.9055L9.05504 10.9229C10.3023 10.9575 10.6141 10.8016 10.6141 10.1953C10.6141 9.91815 10.4409 9.71027 10.0944 9.51972C9.47079 9.19059 8.93378 9.19059 8.31016 9.53704Z" stroke="black" stroke-width="0.2" mask="url(#path-1-outside-1_1909_4852)"/>
<path d="M13.8709 9.53704C13.3512 9.8142 13.2126 10.4725 13.611 10.7843C13.715 10.8709 14.3213 10.9402 14.9449 10.9229L16.0709 10.9055L16.1228 10.3512C16.1748 9.88349 16.0882 9.76223 15.6551 9.53704C15.0142 9.19058 14.4772 9.19058 13.8709 9.53704Z" stroke="black" stroke-width="0.2" mask="url(#path-1-outside-1_1909_4852)"/>
<path d="M10.7354 11.7891C10.6661 11.8583 10.6142 12.1528 10.6142 12.43C10.6142 12.7765 10.7181 12.9497 10.9606 13.019C11.3764 13.1229 11.4283 13.7985 11.0299 14.1796C10.5968 14.63 10.285 14.4914 9.90394 13.6772C9.71338 13.2788 9.54016 13.1576 9.14173 13.1576C8.65669 13.1576 8.62205 13.2095 8.57008 13.9024C8.51811 14.5607 8.5874 14.7166 9.12441 15.2536C9.73071 15.8599 9.78267 15.8772 10.7354 15.7733C11.2898 15.7213 11.8614 15.6694 12 15.6694C12.1386 15.6694 12.7102 15.7213 13.2646 15.7733C14.2173 15.8772 14.2693 15.8599 14.8756 15.2536C15.4126 14.7166 15.4819 14.5607 15.4299 13.9024C15.378 13.2095 15.3433 13.1576 14.8583 13.1576C14.4598 13.1576 14.2866 13.2788 14.0961 13.6772C13.715 14.4914 13.4031 14.63 12.9701 14.1796C12.5717 13.7812 12.6236 13.1229 13.0567 13.019C13.3339 12.9497 13.4031 12.8111 13.3512 12.3434L13.2992 11.7717L12.0866 11.7198C11.411 11.7024 10.8047 11.7198 10.7354 11.7891Z" stroke="black" stroke-width="0.2" mask="url(#path-1-outside-1_1909_4852)"/>
</svg>
