<svg width="18" height="10" viewBox="0 0 18 10" fill="none" xmlns="http://www.w3.org/2000/svg">
<g id="Black">
<path id="Vector" d="M0.225 9.525C0.09375 9.39375 0 9 0 8.625C0 8.00625 0.28125 7.66875 3.99375 3.975C7.65 0.31875 8.025 0 8.625 0C9.225 0 9.6 0.31875 13.275 3.99375C16.95 7.66875 17.25 8.025 17.25 8.64375C17.25 9.46875 16.9688 9.75 16.1438 9.75C15.525 9.75 15.2063 9.46875 12.0563 6.3375L8.625 2.90625L5.19375 6.3375C2.04375 9.46875 1.725 9.75 1.10625 9.75C0.75 9.75 0.35625 9.65625 0.225 9.525Z" fill="#A2A2A2"/>
</g>
</svg>
