<svg width="16" height="16" viewBox="0 0 16 16" fill="none" xmlns="http://www.w3.org/2000/svg">
<path d="M4.775 1.44169C4.6875 1.52919 4.625 1.82919 4.625 2.12919V2.66669H3.675C2.8 2.66669 2.7 2.69169 2.3625 3.02919L2 3.39169V8.66669V13.9417L2.3625 14.3042L2.725 14.6667H8H13.275L13.6375 14.3042L14 13.9417V8.66669V3.39169L13.6375 3.02919C13.3 2.69169 13.2 2.66669 12.325 2.66669H11.375V2.17919C11.375 1.60419 11.125 1.29169 10.6375 1.29169C10.1625 1.29169 10 1.50419 10 2.12919V2.66669H8H6V2.12919C6 1.82919 5.9375 1.52919 5.85 1.44169C5.65 1.24169 4.975 1.24169 4.775 1.44169ZM12.625 4.66669V5.29169H8H3.375V4.66669V4.04169H8H12.625V4.66669ZM12.625 9.97919V13.2917H8H3.375V9.97919V6.66669H8H12.625V9.97919Z" fill="#9FA7BB"/>
<path d="M4.89998 8.11669C4.36248 8.49169 4.67498 9.41669 5.34998 9.41669C5.71248 9.41669 5.99998 9.09169 5.99998 8.66669C5.99998 8.00419 5.44998 7.72919 4.89998 8.11669Z" fill="#9FA7BB"/>
<path d="M7.5 8.16669C7.3625 8.30419 7.25 8.52919 7.25 8.66669C7.25 8.80419 7.3625 9.02919 7.5 9.16669C7.6375 9.30419 7.8625 9.41669 8 9.41669C8.1375 9.41669 8.3625 9.30419 8.5 9.16669C8.6375 9.02919 8.75 8.80419 8.75 8.66669C8.75 8.52919 8.6375 8.30419 8.5 8.16669C8.3625 8.02919 8.1375 7.91669 8 7.91669C7.8625 7.91669 7.6375 8.02919 7.5 8.16669Z" fill="#9FA7BB"/>
<path d="M10.2 8.11669C9.76246 8.55419 10.075 9.41669 10.675 9.41669C11.325 9.41669 11.625 8.47919 11.1 8.11669C10.7375 7.86669 10.45 7.86669 10.2 8.11669Z" fill="#9FA7BB"/>
<path d="M4.77499 10.8166C4.56249 11.0291 4.58749 11.6166 4.82499 11.8416C5.04999 12.0791 5.63749 12.1041 5.84999 11.8916C5.93749 11.8041 5.99999 11.5666 5.99999 11.3541C5.99999 10.8666 5.79999 10.6666 5.31249 10.6666C5.09999 10.6666 4.86249 10.7291 4.77499 10.8166Z" fill="#9FA7BB"/>
<path d="M7.45001 10.8667C7.00001 11.3042 7.37501 12.0417 8.03751 12.0417C8.37501 12.0417 8.75001 11.6417 8.75001 11.2792C8.75001 10.7667 7.83751 10.4667 7.45001 10.8667Z" fill="#9FA7BB"/>
<path d="M10.15 10.8166C9.95 11.0166 9.95 11.6916 10.15 11.8916C10.3625 12.1041 10.95 12.0791 11.175 11.8416C11.4 11.6166 11.425 11.2541 11.25 10.9041C11.1 10.6291 10.4 10.5666 10.15 10.8166Z" fill="#9FA7BB"/>
</svg>
