<svg width="18" height="10" viewBox="0 0 18 10" fill="none" xmlns="http://www.w3.org/2000/svg">
<g id="Black">
<path id="Vector" d="M0.225 0.474999C0.09375 0.60625 0 1 0 1.375C0 1.99375 0.28125 2.33125 3.99375 6.025C7.65 9.68125 8.025 10 8.625 10C9.225 10 9.6 9.68125 13.275 6.00625C16.95 2.33125 17.25 1.975 17.25 1.35625C17.25 0.53125 16.9688 0.25 16.1438 0.25C15.525 0.25 15.2063 0.53125 12.0563 3.6625L8.625 7.09375L5.19375 3.6625C2.04375 0.53125 1.725 0.25 1.10625 0.25C0.75 0.25 0.35625 0.34375 0.225 0.474999Z" fill="#A2A2A2"/>
</g>
</svg>
