<svg width="16" height="16" viewBox="0 0 108 108" fill="none" xmlns="http://www.w3.org/2000/svg">
<path d="M5.42141 60.0798L5.42087 60.0784C4.48173 57.8089 4.25163 54.8427 4.48384 46.3282C4.59997 41.3735 4.69678 38.5585 5.01746 36.4595C5.33905 34.3545 5.88572 32.9697 6.8945 30.8745C11.0883 21.7884 18.2352 15.4174 27.4022 12.5427C31.3713 11.2198 34.6457 11.0662 53.6898 11.0662C73.3559 10.9888 76.0086 11.1425 80.4416 12.5423C89.7643 15.4168 96.8342 21.7107 101.106 30.8746C102.114 32.9697 102.661 34.3546 102.983 36.4595C103.303 38.5585 103.4 41.3734 103.516 46.328C103.748 54.8426 103.518 57.8089 102.579 60.0785L102.579 60.0798C100.166 65.6842 94.6418 70.431 88.8786 71.833C88.4992 71.9279 88.1819 72.0546 87.9017 72.2457C87.6216 72.4367 87.3739 72.695 87.1377 73.0587C86.6627 73.7902 86.2401 74.9385 85.6976 76.7985L85.6975 76.7989C83.8313 83.097 78.6265 89.9315 72.6449 93.8936C69.4652 96.0263 67.015 97.3303 64.202 98.0992C61.3906 98.8678 58.2233 99.1 53.6127 99.1L53.6115 99.1C47.4875 99.0225 44.9175 98.6348 41.5705 97.3115L41.5699 97.3113C32.4818 93.6605 24.8678 85.5828 22.3024 76.721C21.76 74.9001 21.3375 73.7714 20.8626 73.0495C20.3939 72.3371 19.8743 72.0212 19.1211 71.8329C13.358 70.4309 7.8344 65.6841 5.42141 60.0798ZM79.6782 19.6243L79.6782 19.6243C75.5943 18.0062 73.9896 17.8499 55.9355 17.695L55.9349 17.6949C50.6303 17.6175 45.4033 17.6369 41.2608 17.724C39.1895 17.7675 37.3898 17.828 35.9873 17.9018C34.583 17.9756 33.5838 18.0625 33.1077 18.1576C24.4635 20.01 16.9767 25.9534 13.2722 34.057L13.2722 34.0571C12.1941 36.4058 11.4018 39.8408 10.9958 43.4663C10.5898 47.0907 10.5709 50.8961 11.0339 53.9835C11.6485 57.9008 14.8035 62.2117 18.4944 64.1341L20.5944 65.2203V50.6682C20.5944 46.7376 20.6089 43.7248 20.6901 41.4257C20.7712 39.1284 20.919 37.5362 21.1879 36.4505C21.4569 35.3648 21.8529 34.7623 22.4487 34.4793C23.0349 34.2009 23.7903 34.246 24.736 34.3811C24.7361 34.3811 24.7361 34.3811 24.7362 34.3811L26.5165 34.6133L26.6013 34.6244L26.6035 34.7099L27.0682 52.9118L27.0682 52.9119C27.3394 63.8757 27.6495 70.0396 28.7787 74.3537C29.9048 78.6562 31.846 81.1195 35.404 84.6775C46.0537 95.2499 61.9463 95.2499 72.596 84.6775C76.1152 81.1196 78.0565 78.6561 79.1923 74.3535C80.3312 70.0394 80.6606 63.8754 80.9318 52.9119L81.3965 34.7099L81.3987 34.6244L81.4835 34.6133L83.2638 34.3811C83.2639 34.3811 83.2639 34.3811 83.264 34.3811C84.2098 34.246 84.9651 34.2009 85.5513 34.4793C86.1471 34.7623 86.5431 35.3648 86.812 36.4505C87.081 37.5362 87.2288 39.1284 87.3099 41.4257C87.3911 43.7248 87.4056 46.7376 87.4056 50.6682V65.2203L89.5047 64.1345C89.5049 64.1344 89.5052 64.1343 89.5054 64.1342C90.6529 63.5219 92.7343 61.7505 94.0468 60.2836C96.8836 57.0633 97.662 52.9954 97.0426 44.2465L97.0426 44.2462C96.2705 32.8963 89.6318 23.5594 79.6782 19.6243ZM55.9364 17.595C73.9833 17.7499 75.6099 17.9048 79.715 19.5313L33.0872 18.0597C35.0236 17.6724 45.3251 17.44 55.9364 17.595Z" fill="#9FA7BB" stroke="#9FA7BB" stroke-width="0.2"/>
<path d="M37.9738 52.7418C37.9008 52.114 37.8474 51.3126 37.7894 50.2866C37.7117 49.0446 37.6923 47.7831 37.7215 46.7633C37.736 46.2535 37.7628 45.803 37.8006 45.445C37.838 45.092 37.8872 44.8166 37.9519 44.6652C38.1009 44.304 38.4261 44.0374 38.8328 43.8584C39.2407 43.679 39.7406 43.5828 40.2584 43.568C41.2894 43.5386 42.4252 43.8316 43.0719 44.4783C43.2236 44.63 43.3554 44.8844 43.4693 45.2028C43.5842 45.5241 43.6847 45.9217 43.7676 46.3704C43.9334 47.268 44.0307 48.3779 44.0307 49.5062C44.0307 51.7158 43.7413 53.2548 43.0727 54.1828C42.7359 54.6503 42.3039 54.9614 41.7705 55.1241C41.2395 55.286 40.6133 55.2993 39.8879 55.1818C39.48 55.1234 39.1495 55.0489 38.8854 54.8987C38.6161 54.7456 38.4234 54.5185 38.2808 54.1722C38.1398 53.8298 38.0467 53.3684 37.9738 52.7418Z" fill="#9FA7BB" stroke="#9FA7BB" stroke-width="0.2"/>
<path d="M63.9692 49.5061C63.9692 48.3768 64.086 47.2473 64.2615 46.3405C64.3492 45.8873 64.452 45.4877 64.563 45.1707C64.6725 44.8581 64.7946 44.6117 64.928 44.4783C65.2162 44.1901 65.6995 43.9515 66.2407 43.8039C66.7835 43.6558 67.3974 43.5958 67.9552 43.6754C68.4169 43.7331 68.7874 43.7925 69.0738 43.9369C69.3694 44.0861 69.569 44.3219 69.7019 44.7103C69.8326 45.0926 69.9007 45.6276 69.9371 46.3838C69.9735 47.1418 69.9783 48.1318 69.9783 49.4287C69.9783 50.6869 69.9735 51.6574 69.9395 52.408C69.9056 53.157 69.8423 53.6955 69.7222 54.086C69.6007 54.4809 69.4186 54.7319 69.1454 54.8952C68.8794 55.0543 68.5367 55.1238 68.1116 55.1818C67.3864 55.2993 66.7603 55.286 66.2294 55.1241C65.6959 54.9614 65.264 54.6503 64.9272 54.1828C64.2586 53.2548 63.9692 51.7158 63.9692 49.5061Z" fill="#9FA7BB" stroke="#9FA7BB" stroke-width="0.2"/>
<path d="M60.2418 79.7259L60.2417 79.726C58.6345 80.5491 56.3127 80.9569 54.0094 80.9569C51.7065 80.9569 49.4036 80.5493 47.8347 79.7257C46.4606 79.0189 45.0747 77.6697 44.0329 76.1996C42.9929 74.7319 42.2815 73.1232 42.2815 71.8915C42.2815 70.8166 42.8168 69.557 43.6072 68.4542C44.3984 67.3506 45.4567 66.3877 46.523 65.9137C46.751 65.8102 47.1662 65.7217 47.7063 65.648C48.2507 65.5737 48.9337 65.513 49.705 65.4694C51.2475 65.3821 53.1481 65.3627 55.0099 65.4402C58.2187 65.5176 59.9754 65.5947 61.1513 65.9083C62.3422 66.2259 62.9394 66.7864 63.8339 67.7976L63.8346 67.7983C64.3447 68.3869 64.8141 69.1305 65.1562 69.8441C65.4968 70.5544 65.7179 71.2487 65.7179 71.7366C65.7179 73.044 65.0274 74.6907 64.0061 76.179C62.9834 77.6691 61.6165 79.0189 60.2418 79.7259ZM53.9997 74.5024C54.3279 74.5024 54.7971 74.3732 55.2968 74.1617C55.7935 73.9516 56.3091 73.6651 56.7283 73.3604C56.8922 73.235 57.0315 73.1254 57.143 73.0292C57.2556 72.9319 57.3351 72.8523 57.3827 72.7873C57.4328 72.7188 57.4314 72.6885 57.4293 72.6806C57.4277 72.6744 57.4158 72.6468 57.3323 72.6138C57.2522 72.5822 57.129 72.555 56.9527 72.533C56.7778 72.5113 56.5563 72.4954 56.2829 72.484C55.7358 72.4611 54.9875 72.4562 53.9997 72.4562C53.0119 72.4562 52.2636 72.4611 51.7165 72.484C51.4431 72.4954 51.2216 72.5113 51.0467 72.533C50.8704 72.555 50.7472 72.5822 50.6671 72.6138C50.5835 72.6468 50.5717 72.6744 50.5701 72.6806C50.568 72.6885 50.5666 72.7188 50.6167 72.7873C50.6643 72.8523 50.7438 72.9319 50.8564 73.0292C50.9679 73.1254 51.1072 73.235 51.2711 73.3604C51.6902 73.6651 52.2059 73.9516 52.7026 74.1617C53.2023 74.3732 53.6715 74.5024 53.9997 74.5024Z" fill="#9FA7BB" stroke="#9FA7BB" stroke-width="0.2"/>
</svg>
