<svg width="32" height="32" viewBox="0 0 32 32" fill="none" xmlns="http://www.w3.org/2000/svg">
<path d="M13.411 21.3901L13.4113 21.3902L14.8071 21.8485L14.8415 21.8598V21.896V22.6877V23.5002V23.5502H14.7915H13.6873C13.0426 23.5502 12.617 23.6183 12.33 23.788C12.0473 23.9551 11.8911 24.226 11.7989 24.6557C11.7075 25.1645 11.8103 25.5462 12.1016 25.8178C12.3966 26.0927 12.8932 26.2631 13.6079 26.3253C13.6081 26.3253 13.6082 26.3253 13.6083 26.3254L14.795 26.4086L14.8415 26.4119V26.4585V27.5627C14.8415 28.2061 14.9407 28.6332 15.1657 28.9002C15.3886 29.1648 15.7452 29.2835 16.2915 29.2835C16.7938 29.2835 17.1298 29.1556 17.3432 28.8809C17.5591 28.603 17.6582 28.1641 17.6582 27.521V26.4585V26.4119L17.7047 26.4086L18.8913 26.3254C18.8915 26.3253 18.8916 26.3253 18.8917 26.3253C19.6065 26.2631 20.1031 26.0927 20.398 25.8178C20.6894 25.5462 20.7922 25.1645 20.7008 24.6557C20.6086 24.226 20.4524 23.9551 20.1697 23.788C19.8827 23.6183 19.4571 23.5502 18.8123 23.5502H17.7082H17.6582V23.5002V22.6877V21.896V21.8596L17.6928 21.8484L19.1094 21.3901C20.8928 20.8095 22.2187 19.9393 23.4211 18.6124C25.0787 16.7683 25.7832 14.8431 25.7832 12.146C25.7832 8.00123 23.2556 4.49914 19.2547 3.13087C18.397 2.84154 17.2623 2.70123 16.1305 2.71162C14.9986 2.722 13.8746 2.88305 13.038 3.19288C9.14037 4.64418 6.7165 8.0634 6.7165 12.146C6.7165 14.8431 7.42099 16.7683 9.07861 18.6125C10.281 19.9393 11.6068 20.8094 13.411 21.3901ZM22.3569 9.41502L22.3573 9.4158C22.7263 10.1748 22.9092 11.2195 22.9066 12.2555C22.904 13.2913 22.7159 14.326 22.336 15.0646C21.6646 16.3865 20.3861 17.6649 19.0642 18.3364C18.6347 18.5564 18.3018 18.6888 17.8892 18.7655C17.478 18.8419 16.9896 18.8627 16.2498 18.8627C15.2044 18.8627 14.3849 18.7425 13.6476 18.4423C12.9103 18.1421 12.259 17.6634 11.5478 16.9522C8.04194 13.4463 9.36629 7.63261 14.1068 5.84935C14.721 5.60592 15.6461 5.52821 16.5734 5.58829C17.5014 5.64841 18.4409 5.84715 19.0844 6.16363L19.0632 6.20669L19.0844 6.16363C20.4069 6.81437 21.6855 8.09313 22.3569 9.41502Z" fill="#A2A2A2" stroke="#A2A2A2" stroke-width="0.1"/>
</svg>
