<svg width="20" height="20" viewBox="0 0 20 20" fill="none" xmlns="http://www.w3.org/2000/svg">
<g id="Black">
<path id="Vector" d="M8 0.281304C7.5 0.562554 7.1875 1.07818 7.0625 1.81255C6.95312 2.45318 6.90625 2.48443 5.17188 3.48443C3.5 4.43755 3.375 4.48443 2.90625 4.32818C1.26562 3.73443 0 4.57818 0 6.26568C0 6.92193 0.0625 7.06255 0.59375 7.57818C1 7.95318 1.23438 8.32818 1.29688 8.70318C1.54688 10.2813 3.14062 11.0313 4.39062 10.1876C5 9.7813 5.3125 9.25005 5.3125 8.5938C5.3125 8.1563 5.45312 8.04693 7.15625 7.07818L9 6.0313L9.67188 6.26568C10.0625 6.39068 10.5469 6.45318 10.8125 6.4063C11.8438 6.17193 12.6406 4.9688 12.4219 3.98443C12.2969 3.42193 11.625 2.57818 11.3125 2.57818C11.1719 2.57818 11.0938 2.4063 11.0938 2.0938C11.0938 1.4063 10.7031 0.656304 10.1719 0.343804C9.64062 0.0313044 8.51562 5.43594e-05 8 0.281304ZM9.59375 1.67193C9.70312 1.85943 9.70312 2.0938 9.5625 2.48443C9.29688 3.2188 9.51562 3.67193 10.1562 3.67193C10.9062 3.67193 11.375 4.42193 10.9062 4.89068C10.625 5.17193 10.1875 5.12505 9.89062 4.76568C9.73438 4.5938 9.46875 4.45318 9.28125 4.45318C9 4.45318 4.67188 6.82818 4.07812 7.31255C3.95312 7.42193 3.90625 7.68755 3.95312 8.04693C4.04688 8.76568 3.84375 9.14068 3.375 9.14068C2.76562 9.14068 2.57812 8.76568 2.8125 8.04693C3 7.48443 2.98438 7.39068 2.73438 7.10943C2.57812 6.93755 2.25 6.79693 2 6.79693C1.375 6.79693 1.07812 6.1563 1.48438 5.70318C1.84375 5.29693 1.96875 5.31255 2.53125 5.7813C2.78125 6.00005 3.04688 6.17193 3.10938 6.17193C3.375 6.17193 8.32812 3.23443 8.45312 3.00005C8.53125 2.85943 8.53125 2.5938 8.45312 2.37505C8.14062 1.57818 9.14062 0.968804 9.59375 1.67193Z" fill="black"/>
<path id="Vector_2" d="M15.7969 4.37504C15.3594 4.85942 14.75 5.78129 14.4219 6.43754C13.8438 7.59379 13.8281 7.70317 13.8281 9.28129C13.8281 10.8125 13.8594 11.0157 14.3125 11.9688L14.7969 12.9844L14.4688 13.4532C14.2188 13.7969 14.125 14.1875 14.0781 15.0938C14.0312 16.2032 14.0625 16.3125 14.375 16.4844C14.7969 16.7188 15.8125 16.5782 16.4375 16.2032C16.8438 15.9688 16.9062 15.9688 17.3125 16.2032C17.9375 16.5782 18.9531 16.7188 19.375 16.4844C19.6875 16.3125 19.7188 16.2032 19.6719 15.0938C19.625 14.1875 19.5312 13.7969 19.2812 13.4532L18.9531 12.9844L19.4375 11.9688C19.8906 11.0157 19.9219 10.8125 19.9219 9.29692C19.9219 7.70317 19.9062 7.59379 19.3281 6.43754C18.6875 5.14067 17.3281 3.51567 16.875 3.51567C16.7188 3.51567 16.2344 3.90629 15.7969 4.37504ZM17.6094 6.20317C19.0781 8.40629 19.0938 10.1094 17.6875 12.3282C17.4062 12.7657 17.1875 13.1719 17.1875 13.2344C17.1875 13.3125 17.4219 13.5938 17.7188 13.875C18.0156 14.1563 18.3125 14.5782 18.375 14.8282C18.4688 15.2344 18.4531 15.25 18.1406 15.0938C17.9688 14.9844 17.7031 14.7344 17.5625 14.5313C17.2188 14 16.5312 14 16.1875 14.5313C16.0469 14.7344 15.7812 14.9844 15.6094 15.0938C15.2969 15.25 15.2812 15.2344 15.375 14.8282C15.4375 14.5782 15.7344 14.1563 16.0312 13.875C16.3281 13.5938 16.5625 13.3125 16.5625 13.2344C16.5625 13.1719 16.3438 12.7657 16.0625 12.3282C15.0469 10.7188 14.7812 9.34379 15.25 7.93754C15.4688 7.25004 16.6875 5.23442 16.875 5.23442C16.9219 5.23442 17.25 5.67192 17.6094 6.20317Z" fill="black"/>
<path id="Vector_3" d="M6.48428 11.2188C5.93741 11.7969 5.78116 11.875 5.46866 11.7656C5.01553 11.5938 4.23428 11.75 3.62491 12.1094C3.03116 12.4844 2.57803 13.5938 2.71866 14.375C2.82803 14.9375 3.74991 16.0156 4.12491 16.0156C4.28116 16.0156 4.32803 16.3125 4.31241 17.1406C4.29678 18.5 4.56241 19.0938 5.42178 19.6406C5.96866 19.9688 6.18741 20 8.04678 20C9.90616 20 10.1249 19.9688 10.6718 19.6406C11.5312 19.0938 11.7968 18.5 11.7812 17.1406C11.7655 16.3125 11.8124 16.0156 11.9687 16.0156C12.3437 16.0156 13.2655 14.9375 13.3749 14.375C13.5155 13.5938 13.0624 12.4844 12.4687 12.1094C11.8593 11.75 11.078 11.5938 10.6249 11.7656C10.3124 11.875 10.1562 11.7969 9.60928 11.2188C8.98428 10.5781 8.92178 10.5469 8.04678 10.5469C7.17178 10.5469 7.10928 10.5781 6.48428 11.2188ZM8.56241 12.0469C8.74991 12.1719 8.90616 12.4531 8.90616 12.6719C8.90616 13.0938 8.40616 13.6719 8.04678 13.6719C7.68741 13.6719 7.18741 13.0938 7.18741 12.6719C7.18741 12.2969 7.68741 11.7969 8.04678 11.7969C8.14053 11.7969 8.37491 11.9062 8.56241 12.0469ZM5.49991 13.3125C6.03116 13.7969 5.67178 14.7656 4.95303 14.7656C4.53116 14.7656 4.06241 14.3281 4.06241 13.9375C4.06241 13.1875 4.93741 12.7969 5.49991 13.3125ZM11.7499 13.3125C12.2812 13.7969 11.9218 14.7656 11.203 14.7656C10.7812 14.7656 10.3124 14.3281 10.3124 13.9375C10.3124 13.1875 11.1874 12.7969 11.7499 13.3125ZM9.48428 15.4844C10.5624 16.3125 10.7968 17.7812 9.95303 18.4219C9.29678 18.9062 6.79678 18.9062 6.14053 18.4219C5.60928 18.0312 5.46866 17.0781 5.84366 16.3438C6.10928 15.8438 6.92178 15.1562 7.42178 15.0312C7.99991 14.875 8.96866 15.0938 9.48428 15.4844Z" fill="black"/>
</g>
</svg>
