<svg width="32" height="32" viewBox="0 0 32 32" fill="none" xmlns="http://www.w3.org/2000/svg">
<path d="M20.8986 8.00381L20.8986 8.00379L20.9001 8.00424L21.6668 8.23758L21.7475 8.26213L21.6872 8.32113L20.8709 9.12077L20.8706 9.12113L20.0543 9.93743L20.0239 9.96777L19.9893 9.9424L19.49 9.57617C19.4898 9.57609 19.4897 9.57602 19.4896 9.57594C18.8632 9.13095 17.77 8.68305 16.74 8.41721C16.1795 8.27713 15.3138 8.2146 14.4384 8.22707C13.563 8.23955 12.6844 8.32692 12.0985 8.48371L12.0982 8.48378C8.93334 9.31229 6.23053 12.1475 5.53446 15.3793L5.53439 15.3796C5.38586 16.048 5.35227 17.0426 5.41049 18.0262C5.46871 19.0097 5.61831 19.975 5.83264 20.5852C6.87694 23.436 9.33041 25.641 12.3312 26.4036C13.0497 26.5853 14.0484 26.6478 15.0437 26.6021C16.039 26.5564 17.0252 26.4027 17.7187 26.155C20.3541 25.2102 22.5092 22.9887 23.3545 20.2871L23.3546 20.287C23.7605 19.003 23.8644 17.5353 23.6943 16.1477C23.5242 14.7599 23.0805 13.456 22.3949 12.4978L22.3944 12.4971L22.0611 12.0138L22.0372 11.9792L22.0672 11.9497L23.0166 11.017L23.0172 11.0164L23.9499 10.067L24.0356 9.97984V10.1021V10.7354C24.0356 11.1494 24.0855 11.4345 24.2081 11.648C24.3297 11.8599 24.527 12.0083 24.8383 12.1393L24.8386 12.1395C25.1175 12.259 25.455 12.2598 25.7562 12.1668C26.0578 12.0737 26.3157 11.8889 26.4411 11.6458L26.4411 11.6458L26.4427 11.643C26.4504 11.6303 26.4611 11.5989 26.4725 11.5435C26.4835 11.4902 26.4941 11.4202 26.5042 11.3353C26.5243 11.1654 26.5419 10.9385 26.5565 10.6702C26.5856 10.1338 26.6022 9.43477 26.6022 8.70208C26.6022 8.498 26.6029 8.30654 26.6036 8.12686C26.6058 7.51967 26.6076 7.04713 26.58 6.67768C26.5441 6.19775 26.4594 5.90714 26.2754 5.72512C26.0913 5.54297 25.7974 5.45915 25.3127 5.42382C24.9405 5.3967 24.4649 5.39845 23.8543 5.40069C23.6715 5.40136 23.4767 5.40208 23.2689 5.40208C22.3109 5.40208 21.6123 5.41875 21.1286 5.45196C20.8867 5.46857 20.6996 5.48926 20.5612 5.51381C20.4225 5.53843 20.3394 5.56591 20.2983 5.59262C19.8356 5.9609 19.6731 6.63523 19.9316 7.24922C20.0303 7.47943 20.122 7.6246 20.2603 7.73365C20.3998 7.84371 20.5915 7.9208 20.8986 8.00381ZM20.4809 14.7309L20.481 14.7311C20.6898 15.1823 20.8087 15.487 20.8744 15.8665C20.9399 16.2443 20.9522 16.6943 20.9522 17.4354C20.9522 18.1682 20.9399 18.6182 20.8765 18.9896C20.8129 19.3629 20.6982 19.6552 20.4975 20.0734C19.876 21.4169 18.7012 22.6252 17.3576 23.2803C16.8491 23.5304 16.5397 23.6665 16.1616 23.7387C15.7852 23.8106 15.3427 23.8187 14.5689 23.8187C13.7951 23.8187 13.3526 23.8106 12.9762 23.7387C12.5981 23.6665 12.2887 23.5304 11.7802 23.2803C7.71669 21.2821 6.82543 15.9913 10.0004 12.8499L10.0005 12.8498C11.9817 10.9022 14.7871 10.3978 17.2896 11.5566C18.5676 12.1284 19.876 13.4372 20.4809 14.7309Z" fill="#A2A2A2" stroke="#A2A2A2" stroke-width="0.1"/>
</svg>
