<svg width="24" height="24" viewBox="0 0 24 24" fill="none" xmlns="http://www.w3.org/2000/svg">
<path d="M8.50098 2.79964C7.3916 3.48714 6.86035 4.50277 6.86035 5.89339C6.87598 9.20589 10.6416 10.4715 12.3291 7.73714C12.751 7.06527 12.9072 5.64339 12.6572 4.72152C12.4541 3.98714 11.7197 3.06527 11.0635 2.72152C10.4385 2.40902 9.0791 2.44027 8.50098 2.79964ZM10.4541 3.98714C11.0479 4.29964 11.4229 5.01839 11.4229 5.86214C11.4229 6.73714 11.0791 7.37777 10.3916 7.73714C9.86035 8.01839 9.81348 8.01839 9.28223 7.76839C8.53223 7.40902 8.03223 6.36214 8.18848 5.45589C8.31348 4.72152 9.15723 3.75277 9.65723 3.75277C9.84473 3.75277 10.2041 3.86214 10.4541 3.98714Z" fill="black"/>
<path d="M14.7507 4.36214C13.5945 5.06526 13.032 6.20589 13.1413 7.67464C13.2195 8.70589 13.5163 9.23714 14.3601 9.79964C14.9695 10.2215 16.1726 10.284 16.8288 9.94027C18.4538 9.09652 19.1257 6.83089 18.2195 5.26839C17.9695 4.84651 17.5945 4.47151 17.2663 4.31526C16.5476 3.97151 15.3445 3.98714 14.7507 4.36214ZM16.6413 5.54964C17.7195 6.29964 17.3757 8.20589 16.0788 8.75277C15.4382 9.01839 14.8601 8.72152 14.5632 7.98714C13.9538 6.54964 15.5007 4.73714 16.6413 5.54964Z" fill="black"/>
<path d="M3.3288 6.56527C1.8288 7.31527 1.53193 9.73714 2.78193 11.159C3.17255 11.5965 4.1413 12.034 4.75068 12.034C6.17255 12.034 7.04755 11.1434 7.1413 9.61214C7.23505 8.14339 6.56318 7.03402 5.2663 6.48714C4.50068 6.17464 4.09443 6.19027 3.3288 6.56527ZM5.29755 8.12777C6.4538 9.36214 5.6413 11.2059 4.23505 10.5184C3.71943 10.2684 3.2663 9.48714 3.2663 8.86214C3.2663 8.65902 3.40693 8.29964 3.59443 8.06527C4.04755 7.50277 4.71943 7.51839 5.29755 8.12777Z" fill="black"/>
<path d="M18.8916 9.23714C17.5947 9.62777 16.7041 10.8621 16.7041 12.284C16.7041 14.8309 19.9697 15.5965 21.4854 13.4246C22.0322 12.6121 22.1885 11.1121 21.7979 10.3465C21.2979 9.37777 20.0479 8.89339 18.8916 9.23714ZM20.4385 10.8778C20.8447 11.3934 20.8447 11.8153 20.4541 12.4559C19.8291 13.5028 18.626 13.6746 18.1729 12.784C17.8604 12.1903 18.0947 11.4246 18.751 10.8621C19.376 10.3465 20.0166 10.3465 20.4385 10.8778Z" fill="black"/>
<path d="M10.0948 9.69027C8.53226 10.0809 7.70414 10.8778 5.96976 13.5653C4.68851 15.5653 4.61039 15.7684 4.54789 16.6746C4.37601 19.2528 6.48539 20.6121 9.25101 19.7059C10.5948 19.2528 12.0323 19.2528 13.376 19.7059C14.7979 20.1746 16.0166 20.0809 16.8135 19.4403C17.9541 18.534 18.4073 16.9559 17.8916 15.7215C17.4698 14.7215 15.001 11.1434 14.4073 10.659C14.0791 10.409 13.5323 10.0809 13.1885 9.94027C12.4229 9.61214 10.8916 9.48714 10.0948 9.69027ZM12.9854 11.3778C13.8291 11.8778 14.1104 12.2059 15.4541 14.2996C16.9541 16.6434 17.0791 17.2528 16.2198 18.1278C15.5791 18.7528 15.0791 18.8153 13.8916 18.4246C12.4073 17.9246 10.1573 17.9403 8.62601 18.4403C7.53226 18.7996 7.46976 18.7996 6.95414 18.5496C6.31351 18.2528 5.93851 17.7371 5.82914 17.0184C5.75101 16.5496 5.89164 16.2371 6.93851 14.6121C7.59476 13.5809 8.32914 12.4871 8.56351 12.1903C9.57914 10.9246 11.5791 10.5496 12.9854 11.3778Z" fill="black"/>
</svg>
