<svg width="24" height="24" viewBox="0 0 24 24" fill="none" xmlns="http://www.w3.org/2000/svg">
<g id="Black">
<path id="Vector" d="M4.55625 0.356198C4.2375 0.562448 3.88125 0.881198 3.7875 1.04995C3.6375 1.31245 3.39375 1.3687 2.64375 1.3312C0.95625 1.23745 0 2.17495 0 3.93745C0 4.79995 0.075 4.98745 0.6375 5.54995C0.99375 5.9062 1.3875 6.18745 1.5375 6.18745C1.725 6.18745 1.78125 6.5437 1.78125 7.57495C1.78125 9.2062 2.1 9.8062 3.3 10.4062C4.33125 10.9312 7.63125 10.9499 8.68125 10.4249C9.825 9.86245 10.2188 9.1312 10.2188 7.57495C10.2 6.2812 10.2188 6.22495 10.725 6.03745C12.1125 5.5312 12.4313 3.14995 11.2688 2.0062C10.725 1.46245 10.575 1.4062 9.46875 1.4062C8.45625 1.4062 8.23125 1.34995 8.1375 1.0687C7.8375 0.0936975 5.7 -0.318802 4.55625 0.356198ZM6.6 1.8187C7.03125 2.21245 7.03125 2.66245 6.5625 3.0937C5.71875 3.8437 4.59375 2.7187 5.34375 1.87495C5.75625 1.42495 6.15 1.4062 6.6 1.8187ZM3.0375 3.1312C3.225 3.29995 3.375 3.6187 3.375 3.8437C3.375 4.83745 1.93125 5.0062 1.59375 4.04995C1.44375 3.59995 1.48125 3.4687 1.85625 3.1687C2.4 2.73745 2.5875 2.7187 3.0375 3.1312ZM10.125 3.18745C10.575 3.63745 10.575 3.7312 10.2 4.27495C9.88125 4.72495 9.20625 4.8187 8.85 4.46245C8.53125 4.1437 8.56875 3.44995 8.925 3.11245C9.31875 2.7187 9.675 2.73745 10.125 3.18745ZM7.275 5.43745C8.625 6.26245 9.05625 8.09995 8.0625 8.84995C7.6875 9.1312 7.25625 9.2062 6.075 9.2062C3.75 9.2062 2.9625 8.62495 3.375 7.16245C3.88125 5.3437 5.75625 4.5187 7.275 5.43745Z" fill="black"/>
<path id="Vector_2" d="M16.4437 0.374943C15.4499 1.16244 15.3749 2.64369 16.2749 3.61869L16.7624 4.14369L16.3124 4.96869C16.0499 5.43744 15.7687 5.81244 15.6562 5.81244C15.5624 5.81244 15.1312 5.58744 14.7187 5.34369C13.8374 4.79994 13.1999 4.74369 12.9749 5.19369C12.7499 5.62494 12.8812 6.01869 13.3499 6.37494C13.6874 6.65619 13.5937 6.86244 10.6687 11.9062C7.89365 16.6687 7.6124 17.2312 7.6124 18.0562C7.59365 18.8812 7.66865 19.0312 8.30615 19.6124C8.68115 19.9687 8.9999 20.3062 8.9999 20.3624C8.9999 20.4187 8.6624 21.0562 8.23115 21.7874C7.66865 22.7437 7.4999 23.2124 7.5749 23.5499C7.6874 23.9437 7.7999 24.0187 8.30615 23.9624C8.83115 23.9062 8.9999 23.7374 9.73115 22.4812C10.5562 21.0749 10.5562 21.0562 11.0437 21.2999C11.6437 21.6187 12.7124 21.6187 13.2749 21.2999C13.8374 20.9999 13.9312 20.8499 17.1937 15.1499C19.2937 11.5124 20.0437 10.3499 20.2499 10.4249C20.8874 10.6874 21.1124 10.6874 21.4499 10.4437C22.0499 10.0124 21.7124 9.33744 20.6249 8.73744C20.1187 8.45619 19.6874 8.17494 19.6874 8.13744C19.6874 8.08119 19.8937 7.66869 20.1562 7.23744L20.6249 6.44994L21.7124 6.52494C22.7437 6.59994 22.8374 6.56244 23.3999 5.99994C23.9062 5.49369 23.9999 5.26869 23.9999 4.51869C23.9999 3.26244 23.6249 2.86869 20.9249 1.33119C18.9937 0.224943 18.4687 -5.72205e-05 17.7749 -5.72205e-05C17.2124 -5.72205e-05 16.7624 0.131193 16.4437 0.374943ZM20.1749 2.79369C22.4062 4.08744 22.7812 4.49994 22.1249 4.91244C21.9187 5.04369 21.2624 4.76244 19.6124 3.80619C18.3937 3.11244 17.3437 2.41869 17.3062 2.28744C17.2124 2.04369 17.5687 1.49994 17.8124 1.49994C17.8874 1.49994 18.9562 2.08119 20.1749 2.79369ZM18.8062 6.31869C18.2437 7.31244 18.1499 7.36869 17.6437 7.01244L17.2499 6.73119L17.7374 5.81244L18.2249 4.91244L18.7312 5.21244L19.2562 5.49369L18.8062 6.31869ZM16.8749 8.45619C17.8124 8.98119 18.5624 9.44994 18.5624 9.48744C18.5624 9.52494 18.1124 10.2937 17.5874 11.2124L16.5937 12.8999L14.9999 11.9812C14.1187 11.4749 13.3874 10.9874 13.3499 10.8937C13.3124 10.7812 13.3874 10.5374 13.4999 10.3312L13.7062 9.93744L14.4374 10.3124C15.2812 10.7437 15.7687 10.7812 16.0874 10.4624C16.6124 9.93744 16.1999 9.37494 14.6624 8.51244C14.5874 8.47494 15.0374 7.49994 15.1312 7.49994C15.1687 7.49994 15.9562 7.93119 16.8749 8.45619ZM14.0999 13.3312C15.0187 13.8749 15.7312 14.3624 15.7124 14.4187C15.3749 15.1499 12.6562 19.7249 12.4499 19.8937C12.1124 20.1749 9.2999 18.5999 9.2249 18.0749C9.1499 17.4562 9.43115 17.1937 9.9749 17.4562C10.9874 17.9062 11.6624 16.9124 10.8749 16.1249C10.4249 15.6749 10.4249 15.5624 10.7437 15.1124C10.9874 14.7937 11.0249 14.7937 11.6437 15.1687C12.3562 15.6187 12.9374 15.6749 13.2749 15.3374C13.7999 14.8124 13.3874 14.2499 11.8499 13.3874C11.7749 13.3499 12.2249 12.3749 12.3374 12.3749C12.3749 12.3749 13.1812 12.8062 14.0999 13.3312Z" fill="black"/>
</g>
</svg>
