<svg width="16" height="17" viewBox="0 0 16 17" fill="none" xmlns="http://www.w3.org/2000/svg">
<path d="M8.87506 3.51243C8.46256 3.67493 8.02506 4.09993 7.80006 4.52493L7.61256 4.87493H5.33756C2.76256 4.87493 2.46256 4.94993 2.40006 5.58743C2.32506 6.29993 2.60006 6.37493 5.26256 6.37493H7.58756L7.88756 6.83743C8.27506 7.43743 8.73756 7.76243 9.32506 7.86243C10.3626 8.04993 11.1626 7.69993 11.7376 6.83743C12.0376 6.38743 12.0626 6.37493 12.8126 6.37493C13.7001 6.37493 14.0376 6.18743 14.0376 5.68743C14.0376 5.13743 13.6126 4.87493 12.7376 4.87493C12.0501 4.87493 12.0001 4.84993 11.8126 4.51243C11.4751 3.83743 10.8126 3.44993 9.95006 3.41243C9.53756 3.38743 9.05006 3.43743 8.87506 3.51243ZM10.1876 4.82493C10.5126 4.96243 10.7626 5.56243 10.6251 5.92493C10.3876 6.54993 9.66256 6.67493 9.17506 6.17493C8.92506 5.93743 8.87506 5.78743 8.92506 5.52493C9.07506 4.92493 9.63756 4.61243 10.1876 4.82493Z" fill="#303030"/>
<path d="M5.03755 8.88754C4.75005 9.02504 4.38755 9.33754 4.23755 9.57504C4.01255 9.95004 3.92505 10 3.42505 10C2.56255 10 2.11255 10.6 2.53755 11.175C2.65005 11.325 2.92505 11.425 3.35005 11.475C3.82505 11.5125 4.01255 11.5875 4.06255 11.75C4.10005 11.875 4.35005 12.175 4.62505 12.4125C5.25005 12.9875 6.01255 13.125 6.82505 12.8125C7.33755 12.6125 8.00005 11.9625 8.00005 11.65C8.00005 11.55 8.88755 11.5 10.8875 11.475C13.575 11.4375 13.7875 11.425 13.95 11.2C14.1875 10.8625 14.175 10.55 13.875 10.25C13.6375 10.0125 13.45 10 10.85 10L8.06255 9.98754L7.81255 9.58754C7.51255 9.10004 6.61255 8.62504 6.00005 8.62504C5.76255 8.62504 5.32505 8.73754 5.03755 8.88754ZM6.50005 10.25C6.91255 10.6625 6.82505 11.2 6.27505 11.4875C5.90005 11.6875 5.41255 11.4 5.30005 10.9125C5.22505 10.65 5.27505 10.525 5.55005 10.2875C5.96255 9.93754 6.17505 9.92504 6.50005 10.25Z" fill="#303030"/>
</svg>
