<svg width="24" height="24" viewBox="0 0 24 24" fill="none" xmlns="http://www.w3.org/2000/svg">
<path d="M10.3242 2.17969C10.2461 2.28906 10.1211 2.75781 10.0586 3.19531C9.99609 3.64844 9.87109 4.02344 9.79297 4.02344C9.69922 4.02344 9.21484 4.21094 8.71484 4.42969L7.80859 4.83594L7.10547 4.33594C6.60547 3.96094 6.30859 3.85156 6.02734 3.92969C5.55859 4.03906 3.88672 5.78906 3.88672 6.16406C3.88672 6.33594 4.10547 6.75781 4.37109 7.11719L4.85547 7.78906L4.44922 8.69531C4.23047 9.19531 4.04297 9.67969 4.04297 9.77344C4.04297 9.85156 3.66797 9.97656 3.23047 10.0391C2.77734 10.1016 2.30859 10.2266 2.19922 10.3047C1.93359 10.5234 1.93359 13.4609 2.19922 13.6797C2.30859 13.7578 2.77734 13.8828 3.23047 13.9453C3.66797 14.0078 4.04297 14.1328 4.04297 14.2109C4.04297 14.3047 4.23047 14.7891 4.44922 15.2891L4.85547 16.1953L4.37109 16.8672C4.10547 17.2266 3.88672 17.6484 3.88672 17.8203C3.88672 18.1953 5.55859 19.9453 6.02734 20.0547C6.30859 20.1328 6.60547 20.0234 7.10547 19.6484L7.80859 19.1484L8.71484 19.5547C9.21484 19.7734 9.69922 19.9609 9.79297 19.9609C9.87109 19.9609 9.99609 20.3359 10.0586 20.7734C10.1211 21.2266 10.2461 21.6953 10.3242 21.7891C10.543 22.0703 13.4805 22.0703 13.6992 21.7891C13.7773 21.6953 13.9023 21.2266 13.9648 20.7734C14.0273 20.3359 14.1523 19.9609 14.2305 19.9609C14.3242 19.9609 14.8086 19.7734 15.3086 19.5547L16.2148 19.1484L16.918 19.6484C17.418 20.0234 17.7148 20.1328 17.9961 20.0547C18.4648 19.9453 20.1367 18.1953 20.1367 17.8203C20.1367 17.6484 19.918 17.2266 19.6523 16.8672L19.168 16.1953L19.5742 15.2891C19.793 14.7891 19.9805 14.3047 19.9805 14.2109C19.9805 14.1328 20.3555 14.0078 20.8086 13.9453C21.2461 13.8828 21.7148 13.7578 21.8242 13.6797C22.0898 13.4609 22.0898 10.5234 21.8242 10.3047C21.7148 10.2266 21.2461 10.1016 20.8086 10.0391C20.3555 9.97656 19.9805 9.85156 19.9805 9.77344C19.9805 9.67969 19.793 9.19531 19.5742 8.69531L19.168 7.78906L19.668 7.08594C20.043 6.58594 20.1523 6.28906 20.0742 6.00781C19.9648 5.53906 18.2148 3.86719 17.8398 3.86719C17.668 3.86719 17.2461 4.08594 16.8867 4.35156L16.2148 4.83594L15.3086 4.42969C14.8086 4.21094 14.3242 4.02344 14.2305 4.02344C14.1523 4.02344 14.0273 3.64844 13.9648 3.19531C13.9023 2.75781 13.7773 2.28906 13.6992 2.17969C13.5898 2.05469 13.043 1.99219 12.0117 1.99219C10.9805 1.99219 10.4336 2.05469 10.3242 2.17969ZM12.7305 3.97656C12.8555 4.92969 12.9648 5.03906 13.9336 5.36719C14.3867 5.50781 15.0898 5.80469 15.4961 6.02344L16.2461 6.41406L16.9961 5.92969L17.7617 5.46094L18.1523 5.85156L18.543 6.24219L18.0742 7.00781L17.5898 7.75781L17.9805 8.50781C18.1992 8.91406 18.4961 9.61719 18.6367 10.0703C18.9648 11.0391 19.0742 11.1484 20.0273 11.2734C20.7617 11.3828 20.7617 11.3828 20.7617 11.9922C20.7617 12.6016 20.7617 12.6016 20.0273 12.7109C19.0742 12.8359 18.9648 12.9453 18.6367 13.9141C18.4961 14.3672 18.1992 15.0703 17.9805 15.4766L17.5898 16.2266L18.0742 16.9766L18.543 17.7422L18.1523 18.1328L17.7617 18.5234L16.9961 18.0547L16.2461 17.5703L15.4961 17.9609C15.0898 18.1797 14.3867 18.4766 13.9336 18.6172C12.9648 18.9453 12.8555 19.0547 12.7305 19.9922C12.6211 20.7422 12.6211 20.7422 12.0117 20.7422C11.4023 20.7422 11.4023 20.7422 11.293 20.0078C11.168 19.0547 11.0586 18.9453 10.0898 18.6172C9.63672 18.4766 8.93359 18.1797 8.52734 17.9609L7.77734 17.5703L7.02734 18.0547L6.26172 18.5234L5.87109 18.1328L5.48047 17.7422L5.94922 16.9766L6.43359 16.2266L6.04297 15.4766C5.82422 15.0703 5.52734 14.3672 5.38672 13.9141C5.05859 12.9453 4.94922 12.8359 4.01172 12.7109C3.26172 12.6016 3.26172 12.6016 3.26172 11.9922C3.26172 11.3828 3.26172 11.3828 4.01172 11.2734C4.94922 11.1484 5.05859 11.0391 5.38672 10.0703C5.52734 9.61719 5.82422 8.91406 6.04297 8.50781L6.43359 7.75781L5.94922 7.00781L5.48047 6.24219L5.87109 5.85156L6.26172 5.46094L7.02734 5.92969L7.77734 6.41406L8.52734 6.02344C8.93359 5.80469 9.63672 5.50781 10.0898 5.36719C11.0586 5.03906 11.168 4.92969 11.293 3.97656C11.4023 3.24219 11.4023 3.24219 12.0117 3.24219C12.6211 3.24219 12.6211 3.24219 12.7305 3.97656Z" fill="#303030"/>
<path d="M10.3556 6.89844C8.79309 7.39844 7.38684 8.85156 6.91809 10.4141C6.57434 11.5703 6.68371 13.2578 7.16809 14.2734C7.65246 15.2578 8.74621 16.3516 9.74621 16.8359C10.8868 17.3984 13.1368 17.3984 14.2775 16.8359C15.2775 16.3516 16.3712 15.2578 16.8556 14.2578C17.1837 13.6016 17.2462 13.2578 17.2462 11.9922C17.2462 10.7266 17.1837 10.3828 16.8556 9.72656C16.3712 8.72656 15.2775 7.63281 14.2775 7.14844C13.34 6.69531 11.3556 6.57031 10.3556 6.89844ZM13.6525 8.38281C15.5275 9.19531 16.5275 11.6953 15.6993 13.5234L15.4025 14.1641L14.6525 13.5234C13.965 12.9141 13.9337 12.8516 14.1368 12.5547C14.2618 12.3828 14.3556 11.8828 14.3556 11.4453C14.3556 10.0234 13.3868 9.02344 12.0118 9.02344C10.6368 9.02344 9.66809 10.0234 9.66809 11.4453C9.66809 11.8828 9.76184 12.3828 9.88684 12.5547C10.09 12.8516 10.0587 12.9141 9.37121 13.5234L8.62121 14.1641L8.37121 13.5859C7.98059 12.6484 7.91809 12.1641 8.10559 11.2891C8.63684 8.69531 11.2462 7.33594 13.6525 8.38281ZM12.84 10.7734C13.1993 11.1953 13.1837 11.5391 12.7775 12.0547C12.34 12.6172 11.6368 12.5703 11.1837 11.9609C10.3712 10.8672 11.9493 9.74219 12.84 10.7734ZM13.2306 14.1641C13.5431 14.3203 13.9493 14.6172 14.1212 14.8047C14.4337 15.1484 14.4337 15.1484 14.1212 15.3672C13.7931 15.6172 12.4337 16.0547 12.0118 16.0547C11.59 16.0547 10.2306 15.6172 9.90246 15.3672C9.58996 15.1484 9.58996 15.1484 9.90246 14.8047C10.715 13.8984 12.1681 13.6172 13.2306 14.1641Z" fill="#303030"/>
</svg>
