<svg width="24" height="24" viewBox="0 0 24 24" fill="none" xmlns="http://www.w3.org/2000/svg">
<path d="M8.15619 2.13766C6.61869 2.51266 5.41869 3.18767 4.29369 4.29391C0.374943 8.23142 1.48119 14.8127 6.48744 17.2689C7.59369 17.8127 7.96869 17.9064 9.59994 17.9627C11.6437 18.0564 12.8437 17.7752 14.1374 16.9314L14.8499 16.4627L17.6999 19.2939C20.6999 22.2564 21.0374 22.4627 21.7499 21.7502C22.4624 21.0377 22.2562 20.7002 19.2937 17.7002L16.4624 14.8502L16.9312 14.1377C17.7749 12.8439 18.0562 11.6439 17.9624 9.60017C17.9062 7.96892 17.8124 7.59392 17.2687 6.48767C15.5999 3.07516 11.7749 1.25642 8.15619 2.13766ZM11.7374 4.40642C13.1999 4.85641 14.4187 5.90642 15.1874 7.38767C15.7687 8.53142 15.8437 8.85017 15.8249 10.0127C15.8062 11.7002 15.2812 12.9564 14.0999 14.1189C12.8812 15.3189 11.6812 15.8252 10.0124 15.8252C8.84994 15.8439 8.51244 15.7689 7.38744 15.1877C3.74994 13.3314 3.01869 8.77517 5.88744 5.88766C7.49994 4.29391 9.59994 3.76892 11.7374 4.40642Z" fill="white"/>
</svg>
