<svg width="24" height="24" viewBox="0 0 24 24" fill="none" xmlns="http://www.w3.org/2000/svg">
<path d="M5.76019 3.125C5.52582 3.25 5.26019 3.48438 5.16644 3.65625C4.93207 4.10938 4.94769 20.5625 5.19769 20.8125C5.51019 21.125 5.82269 21.0312 6.91644 20.2969C7.49457 19.9062 8.04144 19.5938 8.13519 19.5938C8.21332 19.5938 8.71332 19.9062 9.24457 20.2969C9.77582 20.6875 10.3227 21 10.4633 21C10.6039 21 11.0883 20.6719 11.5414 20.2812L12.3539 19.5625L13.1664 20.2812C13.6196 20.6719 14.1039 21 14.2289 21C14.3696 21 14.9321 20.6875 15.4789 20.2969C16.0258 19.9062 16.5414 19.5938 16.6039 19.5938C16.6821 19.5938 17.2133 19.9062 17.7914 20.2969C18.8852 21.0312 19.1977 21.125 19.5102 20.8125C19.7602 20.5625 19.7758 4.10938 19.5414 3.64062C19.1352 2.90625 18.8696 2.875 12.3227 2.875C7.21332 2.89062 6.10394 2.92188 5.76019 3.125ZM16.1039 6.625C16.1821 6.75 16.2602 6.89062 16.2602 6.9375C16.2602 6.98438 16.1821 7.125 16.1039 7.25C15.9789 7.4375 15.3696 7.5 12.5414 7.53125C9.29144 7.57812 9.10394 7.5625 8.74457 7.26562L8.36957 6.9375L8.74457 6.60938C9.10394 6.3125 9.29144 6.29688 12.5414 6.34375C15.3696 6.375 15.9789 6.4375 16.1039 6.625ZM16.0727 9.9375C16.3227 10.1875 16.3071 10.2969 16.0102 10.5938C15.8071 10.8125 15.2602 10.8438 12.4164 10.8438C9.11957 10.8438 8.44769 10.75 8.44769 10.3281C8.44769 9.79688 8.80707 9.75 12.3539 9.75C14.8852 9.75 15.9321 9.79688 16.0727 9.9375ZM12.6664 13.2656C12.7602 13.3906 12.8227 13.6094 12.7914 13.7656C12.7446 14.0156 12.5414 14.0469 10.7289 14.0469C9.02582 14.0469 8.69769 14 8.55707 13.7812C8.43207 13.5938 8.44769 13.4531 8.58832 13.2812C8.88519 12.9375 12.3696 12.9062 12.6664 13.2656Z" fill="black"/>
</svg>
