<svg width="24" height="24" viewBox="0 0 24 24" fill="none" xmlns="http://www.w3.org/2000/svg">
<path d="M8.50098 2.79964C7.3916 3.48714 6.86035 4.50277 6.86035 5.89339C6.87598 9.20589 10.6416 10.4715 12.3291 7.73714C12.751 7.06527 12.9072 5.64339 12.6572 4.72152C12.4541 3.98714 11.7197 3.06527 11.0635 2.72152C10.4385 2.40902 9.0791 2.44027 8.50098 2.79964Z" fill="black"/>
<path d="M14.7507 4.36214C13.5945 5.06526 13.032 6.20589 13.1413 7.67464C13.2195 8.70589 13.5163 9.23714 14.3601 9.79964C14.9695 10.2215 16.1726 10.284 16.8288 9.94027C18.4538 9.09652 19.1257 6.83089 18.2195 5.26839C17.9695 4.84651 17.5945 4.47151 17.2663 4.31526C16.5476 3.97151 15.3445 3.98714 14.7507 4.36214Z" fill="black"/>
<path d="M3.3288 6.56527C1.8288 7.31527 1.53193 9.73714 2.78193 11.159C3.17255 11.5965 4.1413 12.034 4.75068 12.034C6.17255 12.034 7.04755 11.1434 7.1413 9.61214C7.23505 8.14339 6.56318 7.03402 5.2663 6.48714C4.50068 6.17464 4.09443 6.19027 3.3288 6.56527Z" fill="black"/>
<path d="M18.8916 9.23714C17.5947 9.62777 16.7041 10.8621 16.7041 12.284C16.7041 14.8309 19.9697 15.5965 21.4854 13.4246C22.0322 12.6121 22.1885 11.1121 21.7979 10.3465C21.2979 9.37777 20.0479 8.89339 18.8916 9.23714Z" fill="black"/>
<path d="M10.0948 9.69027C8.53226 10.0809 7.70414 10.8778 5.96976 13.5653C4.68851 15.5653 4.61039 15.7684 4.54789 16.6746C4.37601 19.2528 6.48539 20.6121 9.25101 19.7059C10.5948 19.2528 12.0323 19.2528 13.376 19.7059C14.7979 20.1746 16.0166 20.0809 16.8135 19.4403C17.9541 18.534 18.4073 16.9559 17.8916 15.7215C17.4698 14.7215 15.001 11.1434 14.4073 10.659C14.0791 10.409 13.5323 10.0809 13.1885 9.94027C12.4229 9.61214 10.8916 9.48714 10.0948 9.69027Z" fill="black"/>
</svg>
