<svg width="24" height="24" viewBox="0 0 24 24" fill="none" xmlns="http://www.w3.org/2000/svg">
<path d="M6.80952 6.28125C2.80952 9.90625 2.05952 10.6562 2.01264 11.0625C1.93452 11.7969 2.20014 11.9844 3.32514 11.9844H4.32514V16.6406C4.32514 20.5938 4.35639 21.3438 4.57514 21.6406C4.79389 21.9688 4.91889 21.9844 6.76264 21.9844H8.70014V19.7812C8.70014 18.4844 8.77827 17.2969 8.88764 16.9219C9.15327 16.0156 10.2939 14.9219 11.2158 14.6562C12.7626 14.2188 14.5439 15.2656 15.0439 16.9062C15.1845 17.4062 15.2626 18.3906 15.2626 19.8281V22L17.247 21.9531C19.2001 21.9062 19.247 21.8906 19.4345 21.5156C19.5751 21.2344 19.6376 19.9219 19.6376 16.5469V11.9844H20.622C21.7314 11.9844 21.9814 11.8281 21.9814 11.1094C21.9814 10.6562 21.5595 10.2344 17.2783 6.34375C13.372 2.79688 12.4814 2.04688 12.0595 2.01562C11.5751 1.96875 11.1845 2.28125 6.80952 6.28125ZM10.7939 6.45312C11.3251 6.98438 10.9345 7.67188 10.1689 7.57812C9.63764 7.51562 9.41889 7 9.73139 6.53125C10.0126 6.14062 10.4501 6.10938 10.7939 6.45312ZM14.1376 6.39062C14.247 6.5 14.3251 6.71875 14.3251 6.90625C14.3251 7.09375 14.247 7.3125 14.1376 7.42188C14.0283 7.53125 13.8095 7.60938 13.622 7.60938C12.997 7.60938 12.6689 6.82812 13.1064 6.39062C13.2158 6.28125 13.4345 6.20312 13.622 6.20312C13.8095 6.20312 14.0283 6.28125 14.1376 6.39062ZM9.13764 8.10938C9.57514 8.54688 9.24702 9.32812 8.62202 9.32812C8.20014 9.32812 7.91889 9.04688 7.91889 8.625C7.91889 8.20312 8.20014 7.92188 8.62202 7.92188C8.80952 7.92188 9.02827 8 9.13764 8.10938ZM13.2001 8.23438C15.2001 9.45312 14.372 12.625 12.0283 12.6562C10.372 12.6875 9.24702 11.25 9.66889 9.67188C10.0751 8.17188 11.8876 7.4375 13.2001 8.23438ZM15.8564 8.10938C15.9658 8.21875 16.0439 8.4375 16.0439 8.625C16.0439 8.8125 15.9658 9.03125 15.8564 9.14062C15.747 9.25 15.5283 9.32812 15.3408 9.32812C14.7158 9.32812 14.3876 8.54688 14.8251 8.10938C14.9345 8 15.1533 7.92188 15.3408 7.92188C15.5283 7.92188 15.747 8 15.8564 8.10938Z" fill="black"/>
</svg>
